<?xml version="1.0" encoding="UTF-8" standalone="no"?>
<!DOCTYPE svg PUBLIC "-//W3C//DTD SVG 1.1//EN" "http://www.w3.org/Graphics/SVG/1.1/DTD/svg11.dtd">
<svg width="100%" height="100%" viewBox="0 0 424 420" version="1.1" xmlns="http://www.w3.org/2000/svg" xmlns:xlink="http://www.w3.org/1999/xlink" xml:space="preserve" xmlns:serif="http://www.serif.com/" style="fill-rule:evenodd;clip-rule:evenodd;stroke-linejoin:round;stroke-miterlimit:2;">
    <g id="AI">
        <g transform="matrix(1,0,0,1,-74.164,-44.6771)">
            <path d="M497.257,44.677L74.164,44.677L74.164,464.642L497.257,464.642L497.257,44.677ZM471.239,69.427L97.501,69.427L97.501,441.679L471.239,441.679L471.239,69.427Z" style="fill:rgb(254,151,56);"/>
        </g>
        <g transform="matrix(1,0,0,1,-44.4517,-46.018)">
            <path d="M241.883,151.222C241.811,151.032 241.737,150.844 241.66,150.657C237.757,141.168 228.61,135.041 218.352,135.041L218.326,135.041C208.057,135.052 198.91,141.199 195.023,150.704C194.96,150.859 194.898,151.015 194.838,151.172L119.514,348.944C115.454,359.606 120.805,371.541 131.466,375.602C142.129,379.661 154.063,374.311 158.124,363.65L171.816,327.699L264.323,327.699L277.868,363.591C280.99,371.864 288.85,376.961 297.199,376.96C299.622,376.96 302.088,376.53 304.489,375.624C315.163,371.596 320.551,359.677 316.522,349.003L241.883,151.222ZM187.551,286.383L218.281,205.698L248.73,286.383L187.551,286.383Z" style="fill:rgb(254,134,10);fill-rule:nonzero;"/>
            <path d="M373.182,213.755C361.773,213.755 352.524,223.004 352.524,234.413L352.524,356.297C352.524,367.706 361.773,376.955 373.182,376.955C384.591,376.955 393.84,367.706 393.84,356.297L393.84,234.413C393.84,223.003 384.591,213.755 373.182,213.755Z" style="fill:rgb(254,134,10);fill-rule:nonzero;"/>
            <circle cx="373.182" cy="165.638" r="19.116" style="fill:rgb(254,134,10);"/>
        </g>
    </g>
</svg>
