<?xml version="1.0" encoding="UTF-8" standalone="no"?>
<!DOCTYPE svg PUBLIC "-//W3C//DTD SVG 1.1//EN" "http://www.w3.org/Graphics/SVG/1.1/DTD/svg11.dtd">
<svg width="100%" height="100%" viewBox="0 0 513 272" version="1.1" xmlns="http://www.w3.org/2000/svg" xmlns:xlink="http://www.w3.org/1999/xlink" xml:space="preserve" xmlns:serif="http://www.serif.com/" style="fill-rule:evenodd;clip-rule:evenodd;stroke-linejoin:round;stroke-miterlimit:2;">
    <g transform="matrix(1,0,0,1,0,-23.518)">
        <path d="M83.08,213.191C64.052,213.191 48.63,225.458 48.63,254.13C48.63,282.812 64.053,295.069 83.08,295.069C102.107,295.069 117.53,283.993 117.53,254.13C117.53,224.663 102.107,213.191 83.08,213.191ZM83.08,277.87C76.455,277.87 71.074,270.754 71.074,254.13C71.074,237.506 76.455,230.39 83.08,230.39C89.705,230.39 95.075,237.046 95.075,254.13C95.075,271.444 89.704,277.87 83.08,277.87Z" style="fill-rule:nonzero;"/>
    </g>
    <g transform="matrix(1,0,0,1,0,-23.518)">
        <path d="M32.569,231.476C37.104,231.476 41.054,231.821 44.209,233.096L44.209,214.392C40.761,213.389 37.072,212.856 33.206,212.856C20.542,212.856 9.205,218.06 1.64,226.889C0.554,236.439 0,246.157 0,256C0,264.391 0.408,272.677 1.191,280.858C8.756,289.99 20.292,295.403 33.207,295.403C37.073,295.403 40.762,294.87 44.21,293.867L44.21,274.442C40.72,275.654 36.426,276.793 32.57,276.793C22.403,276.793 14.159,267.535 14.159,254.129C14.158,240.724 22.403,231.476 32.569,231.476Z" style="fill-rule:nonzero;"/>
    </g>
    <g transform="matrix(1,0,0,1,0,-23.518)">
        <path d="M459.337,231.476C463.861,231.476 467.822,231.821 470.967,233.096L470.967,214.392C467.519,213.389 463.841,212.856 459.975,212.856C437.175,212.856 418.702,229.71 418.702,254.129C418.702,278.559 437.176,295.402 459.975,295.402C463.841,295.402 467.519,294.869 470.967,293.866L470.967,274.441C467.488,275.653 463.182,276.792 459.337,276.792C449.17,276.792 440.926,267.534 440.926,254.128C440.926,240.724 449.17,231.476 459.337,231.476Z" style="fill-rule:nonzero;"/>
    </g>
    <g transform="matrix(1,0,0,1,0,-23.518)">
        <path d="M200.382,215.03L174.009,215.03L164.836,258.833L155.663,215.03L129.288,215.03L119.198,293.003L139.15,293.003L144.654,239.568L158.414,293.003L171.257,293.003L185.017,239.568L190.521,293.003L210.473,293.003L200.382,215.03Z" style="fill-rule:nonzero;"/>
    </g>
    <g transform="matrix(1,0,0,1,0,-23.518)">
        <path d="M295.664,215.03L269.29,215.03L260.117,258.833L250.944,215.03L224.571,215.03L214.48,293.003L234.431,293.003L239.936,239.568L253.696,293.003L266.539,293.003L280.298,239.568L285.803,293.003L305.755,293.003L295.664,215.03Z" style="fill-rule:nonzero;"/>
    </g>
    <g transform="matrix(1,0,0,1,0,-23.518)">
        <path d="M355.413,231.541L355.413,215.03L312.757,215.03L312.757,293.003L355.413,293.003L355.413,276.491L333.855,276.491L333.855,262.273L352.432,262.273L352.432,245.76L333.855,245.76L333.855,231.541L355.413,231.541Z" style="fill-rule:nonzero;"/>
    </g>
    <g transform="matrix(1,0,0,1,0,-23.518)">
        <path d="M498.5,262.27L498.5,276.491L511.195,276.491C510.756,282.05 510.129,287.556 509.335,293L477.392,293L477.392,215.03L508.728,215.03C509.616,220.474 510.316,225.981 510.839,231.539L498.5,231.539L498.5,245.76L511.802,245.76C511.938,249.156 512.001,252.573 512.001,256C512.001,258.1 511.98,260.19 511.928,262.269L498.5,262.27Z" style="fill-rule:nonzero;"/>
    </g>
    <g transform="matrix(1,0,0,1,0,-23.518)">
        <path d="M405.232,257.818C412.285,254.652 418.022,248.884 418.022,238.195C418.022,220.306 399.903,215.03 387.062,215.03L361.378,215.03L361.378,293L382.474,293L382.474,257.223L399.903,293L422.149,293L405.232,257.818ZM382.474,248.163C382.244,248.163 382.014,248.163 381.784,248.153L381.784,230.066C382.014,230.056 382.244,230.056 382.474,230.056C390.248,230.056 396.549,232.459 396.549,239.115C396.549,246.22 390.248,248.163 382.474,248.163Z" style="fill-rule:nonzero;"/>
    </g>
    <path d="M371.674,0L123.067,0C107.316,0 94.549,12.768 94.549,28.518L94.549,122.125C94.549,137.876 107.318,150.643 123.067,150.643L241.381,150.643L293.817,181.108L283.345,150.643L371.674,150.643C387.425,150.643 400.192,137.875 400.192,122.125L400.192,28.518C400.193,12.767 387.424,0 371.674,0ZM138.998,136.412C138.955,136.412 138.914,136.412 138.872,136.411C135.444,136.37 132.253,134.657 130.325,131.822C127.28,127.344 122.816,117.02 115.266,76.597C111.219,54.931 108.177,34.527 108.147,34.324C107.295,28.594 111.25,23.26 116.98,22.408C122.706,21.555 128.044,25.51 128.896,31.241C128.925,31.44 131.899,51.377 135.856,72.586C138.142,84.837 140.097,93.976 141.721,100.776C151.611,82.55 163.683,58.04 168.997,46.971C170.943,42.919 175.253,40.557 179.719,41.1C184.183,41.643 187.802,44.97 188.72,49.371C190.457,57.679 194.957,74.979 201.35,90.681C203.708,68.356 208.271,40.024 216.97,22.191C219.509,16.985 225.789,14.823 230.995,17.363C236.201,19.903 238.363,26.182 235.823,31.388C221.991,59.744 219.92,124.338 219.9,124.988C219.776,129.172 217.176,132.881 213.286,134.424C209.395,135.968 204.96,135.052 202,132.092C192.603,122.695 184.037,106.501 176.538,83.96C176.214,82.985 175.899,82.02 175.592,81.067C166.398,99.365 154.312,122.549 147.527,132.031C145.555,134.781 142.378,136.412 138.998,136.412ZM379.737,47.901C377.543,43.471 374.575,39.709 370.939,36.731C367.282,33.753 362.956,31.538 358.055,30.169C346.885,27.066 334.775,31.193 325.653,41.224C314.849,53.104 306.96,75.371 317.231,102.204C324.274,120.594 335.35,123.969 342.507,123.969C343.28,123.969 344.012,123.927 344.68,123.865C363.718,122.057 379.715,96.854 382.798,79.572C385.014,67.19 383.979,56.532 379.737,47.901ZM301.819,47.901C297.451,39.03 289.949,32.896 280.148,30.169C268.968,27.066 256.857,31.193 247.746,41.224C236.931,53.104 229.042,75.371 239.324,102.204C246.367,120.594 257.443,123.969 264.6,123.969C265.373,123.969 266.094,123.927 266.763,123.865C285.811,122.057 301.809,96.854 304.891,79.572C307.106,67.19 306.072,56.532 301.819,47.901ZM362.151,75.883C361.19,81.285 357.804,88.432 353.541,94.085C349.142,99.905 344.837,102.779 342.695,102.977C341.399,103.102 338.965,100.302 336.823,94.701C332.528,83.479 331.087,66.426 341.17,55.329C344.19,52.017 347.69,50.146 350.689,50.146C351.295,50.146 351.88,50.219 352.444,50.376C363.677,53.501 363.917,65.967 362.151,75.883ZM284.244,75.883C283.272,81.285 279.897,88.432 275.624,94.085C271.235,99.905 266.93,102.779 264.788,102.977C263.482,103.102 261.058,100.302 258.916,94.701C254.611,83.479 253.169,66.426 263.263,55.329C266.272,52.017 269.773,50.146 272.782,50.146C273.388,50.146 273.973,50.219 274.527,50.376C285.759,53.501 286.009,65.967 284.244,75.883Z"/>
</svg>
