<?xml version="1.0" encoding="UTF-8" standalone="no"?>
<!DOCTYPE svg PUBLIC "-//W3C//DTD SVG 1.1//EN" "http://www.w3.org/Graphics/SVG/1.1/DTD/svg11.dtd">
<svg width="100%" height="100%" viewBox="0 0 612 612" version="1.1" xmlns="http://www.w3.org/2000/svg" xmlns:xlink="http://www.w3.org/1999/xlink" xml:space="preserve" xmlns:serif="http://www.serif.com/" style="fill-rule:evenodd;clip-rule:evenodd;stroke-linejoin:round;stroke-miterlimit:2;">
    <g transform="matrix(0.980006,0,0,0.980006,7.18253,6.91644)">
        <path d="M610.914,91.556C610.914,41.025 569.889,-0 519.358,-0L90.47,-0C39.939,-0 -1.086,41.025 -1.086,91.556L-1.086,518.815C-1.086,569.346 39.939,610.371 90.47,610.371L519.358,610.371C569.889,610.371 610.914,569.346 610.914,518.815L610.914,91.556ZM166.3,133L339.8,133C371.8,133 397.5,140.3 416.8,155C436.1,169.7 445.8,191.8 445.8,221.5C445.8,239.5 441.4,254.9 432.6,267.7C423.8,280.5 411.2,290.5 394.8,297.5L394.8,298.5C416.8,303.2 433.5,313.6 444.8,329.7C456.1,345.9 461.8,366.1 461.8,390.5C461.8,404.5 459.3,417.6 454.3,429.7C449.3,441.9 441.5,452.4 430.8,461.2C420.1,470 406.5,477 389.8,482.2C373.1,487.4 353.3,490 330.3,490L166.3,490L166.3,133ZM228.8,439L339.3,439C358.3,439 373.1,434.1 383.5,424.2C394,414.4 399.3,400.4 399.3,382.4C399.3,364.7 394.1,351.2 383.5,341.6C372.9,332 358.3,327.4 339.3,327.4L228.8,327.4L228.8,439ZM228.8,282.5L330.8,282.5C345.8,282.5 358.3,278.3 368.3,269.7C378.3,261.1 383.3,248.9 383.3,232.9C383.3,214.9 378.8,202.2 369.8,194.9C360.8,187.6 347.8,183.9 330.8,183.9L228.8,183.9L228.8,282.5Z" style="fill:rgb(86,61,124);"/>
    </g>
</svg>
