<?xml version="1.0" encoding="UTF-8" standalone="no"?>
<!DOCTYPE svg PUBLIC "-//W3C//DTD SVG 1.1//EN" "http://www.w3.org/Graphics/SVG/1.1/DTD/svg11.dtd">
<svg width="100%" height="100%" viewBox="0 0 424 420" version="1.1" xmlns="http://www.w3.org/2000/svg" xmlns:xlink="http://www.w3.org/1999/xlink" xml:space="preserve" xmlns:serif="http://www.serif.com/" style="fill-rule:evenodd;clip-rule:evenodd;stroke-linejoin:round;stroke-miterlimit:2;">
    <g transform="matrix(1,0,0,1,-74.164,-44.6771)">
        <path d="M391.05,232.97C383.925,212.306 354.709,212.306 349.01,229.407C343.31,246.508 362.549,256.483 392.476,266.46C422.403,276.436 440.93,302.801 437.367,326.314C433.804,349.827 423.828,380.468 364.687,380.468C327.724,380.468 307.182,357.365 296.973,340.039L330.484,319.901C330.484,319.901 341.885,344.128 363.261,344.128C384.638,344.128 393.188,337.003 393.188,320.614C393.188,300.663 324.07,293.538 313.382,259.335C302.694,225.132 316.945,176.679 366.823,180.241C397.998,182.468 415.533,197.776 424.301,208.944L391.05,232.97Z" style="fill:rgb(25,19,19);fill-rule:nonzero;"/>
    </g>
    <g transform="matrix(1,0,0,1,-74.164,-44.6771)">
        <path d="M235.714,183.805L235.714,320.615C235.714,337.003 221.463,345.555 207.212,342.704C192.961,339.854 186.548,322.753 186.548,322.753L153.771,344.842C153.771,344.842 160.896,377.619 205.787,380.47C250.678,383.32 276.329,356.243 276.329,333.441L276.329,183.805L235.714,183.805Z" style="fill:rgb(25,19,19);fill-rule:nonzero;"/>
    </g>
    <g transform="matrix(1,0,0,1,-74.164,-44.6771)">
        <path d="M497.257,44.677L74.164,44.677L74.164,464.642L497.257,464.642L497.257,44.677ZM471.239,69.427L97.501,69.427L97.501,441.679L471.239,441.679L471.239,69.427Z" style="fill:rgb(228,186,66);"/>
    </g>
</svg>
