<?xml version="1.0" encoding="UTF-8" standalone="no"?>
<!DOCTYPE svg PUBLIC "-//W3C//DTD SVG 1.1//EN" "http://www.w3.org/Graphics/SVG/1.1/DTD/svg11.dtd">
<svg width="100%" height="100%" viewBox="0 0 640 512" version="1.1" xmlns="http://www.w3.org/2000/svg" xmlns:xlink="http://www.w3.org/1999/xlink" xml:space="preserve" xmlns:serif="http://www.serif.com/" style="fill-rule:evenodd;clip-rule:evenodd;stroke-linejoin:round;stroke-miterlimit:2;">
    <path d="M320,104.5C491.4,104.5 623.2,176.7 623.2,256C623.2,335.3 491.3,407.5 320,407.5C148.6,407.5 16.8,335.3 16.8,256C16.8,176.7 148.7,104.5 320,104.5M320,87.7C143.3,87.7 0,163 0,256C0,349 143.3,424.3 320,424.3C496.7,424.3 640,349 640,256C640,163 496.7,87.7 320,87.7ZM218.2,242.5C210.3,283 182.4,278.8 148.1,278.8L161.8,208.2C199.8,208.2 225.6,204.1 218.2,242.5ZM97.4,350.3L134.1,350.3L142.8,305.5C183.9,305.5 209.4,308.5 233,286.4C259.1,262.4 265.9,219.7 247.3,198.3C237.6,187.1 222,181.6 200.8,181.6L130.1,181.6L97.4,350.3ZM283.1,136.7L319.6,136.7L310.9,181.5C342.4,181.5 371.6,179.2 385.7,192.2C400.5,205.8 393.4,223.2 377.4,305.3L340.4,305.3C355.8,225.9 358.7,219.3 353.1,213.3C347.7,207.5 335.4,208.7 305.7,208.7L286.9,305.3L250.4,305.3L283.1,136.7ZM505,242.5C497,283.6 468.3,278.8 434.9,278.8L448.6,208.2C486.8,208.2 512.4,204.1 505,242.5ZM384.2,350.3L421,350.3L429.7,305.5C472.9,305.5 496.8,308 519.9,286.4C546,262.4 552.8,219.7 534.2,198.3C524.5,187.1 508.9,181.6 487.7,181.6L417,181.6L384.2,350.3Z" style="fill:rgb(143,158,209);fill-rule:nonzero;"/>
    <path d="M384.2,350.3L417,181.6L487.7,181.6C508.9,181.6 524.5,187.1 534.2,198.3C552.8,219.7 546,262.4 519.9,286.4C496.8,308 472.9,305.5 429.7,305.5L421,350.3L384.2,350.3ZM97.476,349.906L130.1,181.6L200.8,181.6C222,181.6 237.6,187.1 247.3,198.3C265.9,219.7 259.1,262.4 233,286.4C209.4,308.5 183.9,305.5 142.8,305.5L134.1,350.3L98.197,350.3L97.663,350.009L97.476,349.906ZM283.1,136.7L319.6,136.7L310.9,181.5C342.4,181.5 371.6,179.2 385.7,192.2C400.5,205.8 393.4,223.2 377.4,305.3L340.4,305.3C355.8,225.9 358.7,219.3 353.1,213.3C347.7,207.5 335.4,208.7 305.7,208.7L286.9,305.3L250.4,305.3L283.1,136.7ZM505,242.5C512.4,204.1 486.8,208.2 448.6,208.2L434.9,278.8C468.3,278.8 497,283.6 505,242.5ZM218.2,242.5C210.3,283 182.4,278.8 148.1,278.8L161.8,208.2C199.8,208.2 225.6,204.1 218.2,242.5Z"/>
</svg>
