<svg id="Layer_1" enable-background="new 0 0 256 256" height="512" viewBox="0 0 256 256" width="512" xmlns="http://www.w3.org/2000/svg"><g><g><path d="m200.938 252h-145.876c-5.523 0-10-4.477-10-10v-228c0-5.523 4.477-10 10-10h145.876c5.523 0 10 4.477 10 10v228c0 5.523-4.477 10-10 10z" fill="#f4efed"/></g><g><path d="m128 176.405-41.92-24.202-19.091 11.022 61.011 35.224 61.011-35.224-19.091-11.022z" fill="#526faa"/></g><g><path d="m128 57.551v22.044l41.92 24.203v48.405l19.091 11.022v-70.45z" fill="#fcc24c"/></g><g><path d="m86.08 103.798 41.92-24.203v-22.044l-61.011 35.224v70.45l19.091-11.022z" fill="#8852a8"/></g><g><path d="m200.938 4h-10c5.523 0 10 4.477 10 10v228c0 5.523-4.477 10-10 10h10c5.523 0 10-4.477 10-10v-228c0-5.523-4.477-10-10-10z" fill="#d6d1cf"/></g><g><path d="m55.062 252h10c-5.523 0-10-4.477-10-10v-228c0-5.523 4.477-10 10-10h-10c-5.523 0-10 4.477-10 10v228c0 5.523 4.477 10 10 10z" fill="#fff"/></g><g><path d="m159.852 27.611h-63.705c-4.016 0-7.642-2.402-9.208-6.1l-7.416-17.511h96.954l-7.416 17.511c-1.567 3.698-5.193 6.1-9.209 6.1z" fill="#526faa"/></g><g><path d="m200.938 254h-145.876c-6.617 0-12-5.383-12-12v-228c0-6.617 5.383-12 12-12h145.876c6.617 0 12 5.383 12 12v228c0 6.617-5.382 12-12 12zm-145.876-248c-4.411 0-8 3.589-8 8v228c0 4.411 3.589 8 8 8h145.876c4.411 0 8-3.589 8-8v-228c0-4.411-3.589-8-8-8z" fill="#690589"/></g><g><path d="m55.062 42.33c-1.104 0-2-.896-2-2v-12c0-1.104.896-2 2-2s2 .896 2 2v12c0 1.104-.895 2-2 2z" fill="#690589"/></g><g><path d="m159.853 29.611h-63.706c-4.829 0-9.167-2.874-11.05-7.32l-7.416-17.511c-.261-.618-.196-1.325.174-1.884.371-.56.997-.896 1.668-.896h96.955c.671 0 1.297.336 1.667.896.371.559.437 1.267.175 1.885l-7.417 17.511c-1.884 4.446-6.221 7.319-11.05 7.319zm-77.311-23.611 6.239 14.731c1.255 2.964 4.147 4.88 7.366 4.88h63.705c3.219 0 6.11-1.916 7.366-4.88l6.24-14.731z" fill="#690589"/></g><g><path d="m128 200.449c-.345 0-.69-.089-1-.268l-61.011-35.225c-.619-.357-1-1.018-1-1.732s.381-1.375 1-1.732l19.091-11.022c.619-.357 1.381-.357 2 0l40.92 23.625 40.92-23.625c.619-.357 1.381-.357 2 0l19.091 11.022c.619.357 1 1.018 1 1.732s-.381 1.375-1 1.732l-61.011 35.225c-.31.179-.655.268-1 .268zm-57.011-37.224 57.011 32.915 57.011-32.915-15.091-8.712-40.92 23.624c-.619.357-1.381.357-2 0l-40.92-23.625z" fill="#690589"/></g><g><path d="m189.011 165.225c-.346 0-.69-.089-1-.268l-19.091-11.022c-.619-.357-1-1.018-1-1.732v-47.25l-40.92-23.626c-.619-.357-1-1.018-1-1.732v-22.044c0-.714.381-1.375 1-1.732s1.381-.357 2 0l61.011 35.225c.619.357 1 1.018 1 1.732v70.449c0 .714-.381 1.375-1 1.732-.31.178-.655.268-1 .268zm-17.091-14.177 15.091 8.713v-65.831l-57.011-32.915v17.425l40.92 23.625c.619.357 1 1.018 1 1.732z" fill="#690589"/></g><g><path d="m66.989 165.225c-.345 0-.69-.089-1-.268-.619-.357-1-1.018-1-1.732v-70.45c0-.714.381-1.375 1-1.732l61.011-35.224c.619-.357 1.381-.357 2 0s1 1.018 1 1.732v22.044c0 .714-.381 1.375-1 1.732l-40.92 23.625v47.25c0 .714-.381 1.375-1 1.732l-19.091 11.022c-.309.179-.655.269-1 .269zm2-71.295v65.831l15.091-8.713v-47.25c0-.714.381-1.375 1-1.732l40.92-23.626v-17.425zm17.091 58.273h.01z" fill="#690589"/></g><g><path d="m109.768 145.335c-7.974 0-14.314-6.439-14.314-14.313v-17.632c0-1.536 1.189-2.724 2.724-2.724 1.485 0 2.774 1.189 2.774 2.724v17.632c0 4.853 3.962 8.816 8.816 8.816 4.903 0 8.815-3.962 8.815-8.816v-17.632c0-1.536 1.238-2.724 2.774-2.724 1.535 0 2.724 1.189 2.724 2.724v17.632c0 7.874-6.388 14.313-14.313 14.313z" fill="#690589"/></g><g><path d="m160.034 115.371-9.411 12.778 9.411 12.877c.841 1.189.644 2.922-.594 3.764-.496.347-1.04.545-1.585.545-.892 0-1.684-.446-2.229-1.139l-8.321-11.441-8.37 11.441c-.545.694-1.337 1.139-2.179 1.139-.594 0-1.139-.198-1.585-.545-1.238-.842-1.485-2.575-.643-3.764l9.41-12.877-9.41-12.778c-.842-1.238-.595-2.922.643-3.764 1.189-.941 2.923-.694 3.764.594l8.37 11.391 8.321-11.391c.941-1.288 2.575-1.536 3.814-.594 1.238.841 1.436 2.525.594 3.764z" fill="#690589"/></g></g></svg>