<svg id="Layer_1" enable-background="new 0 0 256 256" height="512" viewBox="0 0 256 256" width="512" xmlns="http://www.w3.org/2000/svg"><g><g><path d="m29.619 181.632c-7.724 0-14.009-6.285-14.009-14.009v-126.891c0-7.724 6.285-14.009 14.009-14.009h196.762c7.724 0 14.009 6.285 14.009 14.009v126.892c0 7.724-6.285 14.009-14.009 14.009h-196.762z" fill="#f46275"/><path d="m231.769 155.322c0 2.963-2.425 5.388-5.388 5.388h-196.762c-2.963 0-5.388-2.425-5.388-5.388v-114.591c0-2.963 2.425-5.388 5.388-5.388h196.762c2.963 0 5.388 2.425 5.388 5.388z" fill="#63bce7"/><path d="m33.991 155.322v-114.591c0-2.963 2.425-5.388 5.388-5.388h-9.76c-2.963 0-5.388 2.425-5.388 5.388v114.59c0 2.963 2.425 5.388 5.388 5.388h9.76c-2.964.001-5.388-2.424-5.388-5.387z" fill="#6377e7"/><path d="m222.009 155.322v-114.591c0-2.963-2.425-5.388-5.388-5.388h9.76c2.963 0 5.388 2.425 5.388 5.388v114.59c0 2.963-2.425 5.388-5.388 5.388h-9.76c2.964.001 5.388-2.424 5.388-5.387z" fill="#63e2e7"/><g><path d="m41 68.868h89.667v52.333h-89.667z" fill="#f8af23"/><g><circle cx="102.183" cy="93.086" fill="#f8af23" r="7.336"/><path d="m97.872 110.329-17.159-9.004v-16.485l17.159-9.004z" fill="#63bce7"/><path d="m97.872 75.836h4.312v34.493h-4.312z" fill="#f46275"/><path d="m66.282 84.84h14.431v16.492h-14.431z" fill="#f8af23"/><path d="m60.556 88.958h5.726v8.249h-5.726z" fill="#f46275"/><path d="m70.315 101.332h6.365v12.901h-6.365z" fill="#63bce7"/></g></g><path d="m69.208 213.777h-36.977c-4.418 0-8-3.582-8-8v-76.576c0-4.418 3.582-8 8-8h36.977c4.418 0 8 3.582 8 8v76.576c0 4.418-3.582 8-8 8z" fill="#63bce7"/><path d="m33.991 205.777v-76.576c0-4.418 3.582-8 8-8h-9.76c-4.418 0-8 3.582-8 8v76.576c0 4.418 3.582 8 8 8h9.76c-4.419 0-8-3.582-8-8z" fill="#6377e7"/><path d="m88.847 204.348h78.305v9.429h-78.305z" fill="#f46275"/><path d="m99.983 181.632h56.035v22.716h-56.035z" fill="#9e9e9e"/><path d="m88.847 204.348h9.76v9.429h-9.76z" fill="#f43075"/><path d="m99.983 181.632h9.76v22.716h-9.76z" fill="#707070"/><circle cx="128" cy="171.171" fill="#f8af23" r="4.613"/><path d="m231.527 213.777h-70.294c-4.895 0-8.863-3.968-8.863-8.863v-111.6c0-4.895 3.968-8.863 8.863-8.863h70.294c4.895 0 8.863 3.968 8.863 8.863v111.601c0 4.894-3.968 8.862-8.863 8.862z" fill="#f8af23"/><path d="m231.527 84.45h-9.76c4.895 0 8.863 3.968 8.863 8.863v111.601c0 4.895-3.968 8.863-8.863 8.863h9.76c4.895 0 8.863-3.968 8.863-8.863v-111.6c0-4.895-3.968-8.864-8.863-8.864z" fill="#f8d323"/><g fill="#f46275"><path d="m229.794 204.348h-66.457c-.462 0-.836-.374-.836-.836v-108.42c0-.462.374-.836.836-.836h66.457c.462 0 .836.374.836.836v108.42c0 .462-.374.836-.836.836z"/><path d="m24.231 205.777c0 4.418 3.582 8 8 8h36.977c4.418 0 8-3.582 8-8v-3.919h-52.977z"/><path d="m77.208 129.201c0-4.418-3.582-8-8-8h-36.977c-4.418 0-8 3.582-8 8v3.919h52.977z"/></g><path d="m33.991 205.777v-3.919h-9.76v3.919c0 4.418 3.582 8 8 8h9.76c-4.419 0-8-3.582-8-8z" fill="#f43075"/><path d="m41.991 121.201h-9.76c-4.418 0-8 3.582-8 8v3.919h9.76v-3.919c0-4.418 3.581-8 8-8z" fill="#f43075"/><g><circle cx="214.033" cy="147.841" fill="#f8af23" r="7.336"/><path d="m209.721 165.084-17.158-9.004v-16.485l17.158-9.004z" fill="#63bce7"/><path d="m209.721 130.591h4.312v34.493h-4.312z" fill="#f46275"/><path d="m178.132 139.595h14.431v16.492h-14.431z" fill="#f8af23"/><path d="m172.406 143.713h5.726v8.249h-5.726z" fill="#f46275"/><path d="m182.165 156.087h6.365v12.901h-6.365z" fill="#63bce7"/></g><g><circle cx="66.193" cy="165.731" fill="#f8af23" r="6.621"/><path d="m62.302 181.292-15.485-8.126v-14.877l15.485-8.126z" fill="#63bce7"/><path d="m62.302 150.163h3.891v31.129h-3.891z" fill="#f46275"/><path d="m33.991 158.289h12.826v14.883h-12.826z" fill="#f8af23"/><path d="m28.626 162.005h5.365v7.445h-5.365z" fill="#f46275"/><path d="m37.433 173.172h5.745v11.643h-5.745z" fill="#63bce7"/></g></g><g fill="#321f7a"><path d="m60.556 98.707h4.227v2.625c0 .828.672 1.5 1.5 1.5h2.532v11.4c0 .828.672 1.5 1.5 1.5h6.366c.828 0 1.5-.672 1.5-1.5v-11.4h2.177l16.816 8.825v-.008c.209.111.444.18.697.18h4.312c.828 0 1.5-.672 1.5-1.5v-8.544c4.159-.716 7.336-4.339 7.336-8.699s-3.177-7.983-7.336-8.699v-8.551c0-.828-.672-1.5-1.5-1.5h-4.312c-.253 0-.488.069-.697.18v-.008l-16.831 8.832h-14.061c-.828 0-1.5.672-1.5 1.5v2.618h-4.227c-.828 0-1.5.672-1.5 1.5v8.249c.001.828.673 1.5 1.501 1.5zm47.464-5.621c0 2.698-1.844 4.969-4.336 5.633v-11.266c2.492.664 4.336 2.935 4.336 5.633zm-8.649-15.75h1.312v31.493h-1.312zm-24.19 35.396h-3.366v-9.9h3.366zm21.19-4.884-14.158-7.431v-14.67l14.158-7.43zm-28.589-21.508h11.431v13.492h-2.532-6.366-2.532v-2.625-8.249-2.618zm-5.726 4.118h2.727v5.249h-2.727z"/><path d="m128 177.284c3.371 0 6.113-2.742 6.113-6.113s-2.742-6.113-6.113-6.113-6.113 2.742-6.113 6.113 2.742 6.113 6.113 6.113zm0-9.226c1.717 0 3.113 1.396 3.113 3.113s-1.396 3.113-3.113 3.113-3.113-1.396-3.113-3.113 1.396-3.113 3.113-3.113z"/><path d="m216.333 71.345h-56.333c-.828 0-1.5.672-1.5 1.5s.672 1.5 1.5 1.5h56.333c.828 0 1.5-.672 1.5-1.5s-.672-1.5-1.5-1.5z"/><path d="m36.875 40.592c-2.412 0-4.375 1.963-4.375 4.375s1.963 4.375 4.375 4.375 4.375-1.963 4.375-4.375-1.963-4.375-4.375-4.375zm0 5.75c-.758 0-1.375-.617-1.375-1.375s.617-1.375 1.375-1.375 1.375.617 1.375 1.375-.617 1.375-1.375 1.375z"/><path d="m52.209 40.592c-2.412 0-4.375 1.963-4.375 4.375s1.963 4.375 4.375 4.375 4.375-1.963 4.375-4.375-1.963-4.375-4.375-4.375zm0 5.75c-.758 0-1.375-.617-1.375-1.375s.617-1.375 1.375-1.375 1.375.617 1.375 1.375-.617 1.375-1.375 1.375z"/><path d="m67.543 40.592c-2.412 0-4.375 1.963-4.375 4.375s1.963 4.375 4.375 4.375 4.375-1.963 4.375-4.375-1.963-4.375-4.375-4.375zm0 5.75c-.758 0-1.375-.617-1.375-1.375s.617-1.375 1.375-1.375 1.375.617 1.375 1.375-.617 1.375-1.375 1.375z"/><path d="m199.75 44.967c0-.828-.672-1.5-1.5-1.5h-118.25c-.828 0-1.5.672-1.5 1.5s.672 1.5 1.5 1.5h118.25c.828 0 1.5-.672 1.5-1.5z"/><path d="m229.794 92.755h-66.457c-1.288 0-2.337 1.048-2.337 2.337v108.42c0 1.289 1.049 2.337 2.337 2.337h66.457c1.288 0 2.336-1.048 2.336-2.337v-108.42c0-1.289-1.048-2.337-2.336-2.337zm-.664 110.094h-65.13v-107.094h65.13z"/><circle cx="50.471" cy="208.025" r="2.274"/><path d="m42.803 128.66h15.834c.828 0 1.5-.672 1.5-1.5s-.672-1.5-1.5-1.5h-15.834c-.828 0-1.5.672-1.5 1.5s.672 1.5 1.5 1.5z"/><path d="m172.406 153.462h4.226v2.625c0 .828.672 1.5 1.5 1.5h2.533v11.4c0 .828.672 1.5 1.5 1.5h6.365c.828 0 1.5-.672 1.5-1.5v-11.4h2.176l16.819 8.825v-.008c.209.111.444.18.697.18h4.312c.828 0 1.5-.672 1.5-1.5v-8.544c4.159-.716 7.336-4.339 7.336-8.699s-3.177-7.983-7.336-8.699v-8.551c0-.828-.672-1.5-1.5-1.5h-4.312c-.253 0-.488.069-.697.18v-.008l-16.832 8.832h-14.061c-.828 0-1.5.672-1.5 1.5v2.618h-4.226c-.828 0-1.5.672-1.5 1.5v8.249c0 .828.672 1.5 1.5 1.5zm47.463-5.621c0 2.698-1.844 4.969-4.336 5.633v-11.267c2.492.665 4.336 2.936 4.336 5.634zm-8.647-15.75h1.312v31.493h-1.312zm-24.192 35.396h-3.365v-9.9h3.365zm21.192-4.884-14.159-7.43v-14.671l14.159-7.43zm-28.59-21.508h11.431v13.492h-2.532-6.365-2.533v-2.625-8.249-2.618zm-5.726 4.118h2.726v5.249h-2.726z"/><path d="m74.313 165.73c0-3.964-2.858-7.269-6.62-7.976v-7.592c0-.828-.672-1.5-1.5-1.5h-3.892c-.253 0-.488.069-.697.18v-.008l-15.158 7.954h-12.456c-.828 0-1.5.672-1.5 1.5v2.216h-3.864c-.828 0-1.5.672-1.5 1.5v7.445c0 .828.672 1.5 1.5 1.5h3.864v2.222c0 .828.672 1.5 1.5 1.5h1.942v10.144c0 .828.672 1.5 1.5 1.5h5.745c.828 0 1.5-.672 1.5-1.5v-10.144h1.78l15.147 7.948v-.008c.209.111.444.18.697.18h3.892c.828 0 1.5-.672 1.5-1.5v-7.585c3.763-.706 6.62-4.011 6.62-7.976zm-44.187 2.22v-4.445h2.364v4.445zm5.364 1.5v-7.445-2.216h9.826v11.883h-2.139-5.745-1.942zm6.188 13.865h-2.745v-8.644h2.745zm6.638-24.119 12.485-6.552v26.166l-12.485-6.552zm16.377 20.596h-.892v-28.129h.892zm3-9.19v-9.741c2.089.646 3.62 2.572 3.62 4.87s-1.531 4.225-3.62 4.871z"/><path d="m27.323 227.777h-18.003c-.828 0-1.5.672-1.5 1.5s.672 1.5 1.5 1.5h18.003c.828 0 1.5-.672 1.5-1.5s-.672-1.5-1.5-1.5z"/><path d="m246.68 227.777h-18.003c-.828 0-1.5.672-1.5 1.5s.672 1.5 1.5 1.5h18.003c.828 0 1.5-.672 1.5-1.5s-.672-1.5-1.5-1.5z"/><path d="m218.479 227.777h-180.958c-.828 0-1.5.672-1.5 1.5s.672 1.5 1.5 1.5h180.959c.828 0 1.5-.672 1.5-1.5s-.672-1.5-1.501-1.5z"/><path d="m88.848 215.277h72.386 5.919 64.374 15.153c.828 0 1.5-.672 1.5-1.5s-.672-1.5-1.5-1.5h-7.872c1.901-1.88 3.082-4.485 3.082-7.363v-112.581-51.602c0-8.552-6.957-15.509-15.509-15.509h-196.762c-8.552 0-15.509 6.957-15.509 15.509v126.893c0 5.882 3.37 11.267 8.621 13.882v20.353 3.919c0 2.515.989 4.799 2.591 6.5h-16.002c-.828 0-1.5.672-1.5 1.5s.672 1.5 1.5 1.5h22.911 36.977 19.64zm141.421-132.327h-69.035c-5.714 0-10.363 4.649-10.363 10.363v65.896h-72.163v-24.59h65.591c.828 0 1.5-.672 1.5-1.5v-52.333c0-.828-.672-1.5-1.5-1.5h-12.132v-10.419c0-.828-.672-1.5-1.5-1.5h-89.667c-.828 0-1.5.672-1.5 1.5v50.834h-7.269c-2.515 0-4.799.989-6.5 2.591v-81.561c0-2.144 1.744-3.888 3.888-3.888h196.762c2.144 0 3.888 1.744 3.888 3.888zm-128.787 119.899v-19.716h49.388v19.716zm29.185-80.148c.828 0 1.5-.672 1.5-1.5v-38.915h10.632v49.334h-64.091v-2.419c0-2.515-.989-4.799-2.591-6.5zm-1.5-3h-59.959-26.708v-49.334h86.667zm-88.167 3h28.208c3.584 0 6.5 2.916 6.5 6.5v2.419h-49.977v-2.419c0-3.584 2.916-6.5 6.5-6.5zm37.708 39.509h72.162v17.923h-50.888-21.274zm-52.977-6.889v-20.701h49.977v65.738h-49.977zm52.977 50.456v-3.919-18.726h19.774v19.716h-9.635c-.828 0-1.5.672-1.5 1.5v7.929h-11.23c1.602-1.701 2.591-3.985 2.591-6.5zm11.64 6.5v-6.429h9.635 50.935c.225 2.505 1.342 4.755 3.034 6.429zm148.542-7.363c0 4.061-3.303 7.363-7.363 7.363h-64.374-5.919c-4.061 0-7.363-3.303-7.363-7.363v-111.601c0-4.061 3.303-7.363 7.363-7.363h70.293c4.061 0 7.363 3.303 7.363 7.363zm-221.78-37.29v-126.893c0-6.897 5.611-12.509 12.509-12.509h196.762c6.897 0 12.509 5.611 12.509 12.509v45.309c-1.492-1.51-3.44-2.564-5.621-2.936v-42.373c0-3.798-3.09-6.888-6.888-6.888h-196.762c-3.798 0-6.888 3.09-6.888 6.888v88.47 3.919 22.201 22.734c-3.465-2.296-5.621-6.205-5.621-10.431zm15.121 44.653c-3.584 0-6.5-2.916-6.5-6.5v-2.419h49.977v2.419c0 3.584-2.916 6.5-6.5 6.5z"/></g></g></svg>