<?xml version="1.0" encoding="iso-8859-1"?>
<!-- Generator: Adobe Illustrator 19.0.0, SVG Export Plug-In . SVG Version: 6.00 Build 0)  -->
<svg version="1.1" id="Layer_1" xmlns="http://www.w3.org/2000/svg" xmlns:xlink="http://www.w3.org/1999/xlink" x="0px" y="0px"
	 viewBox="0 0 512 512" style="enable-background:new 0 0 512 512;" xml:space="preserve">
<g>
	<g>
		<g>
			<path d="M74.214,0v512h266.358l2.197-2.197l92.82-92.819l2.197-2.197V0H74.214z M344.966,486.393v-67.212h67.213L344.966,486.393
				z M422.786,404.181h-92.82V497H89.214V15h333.572V404.181z"/>
			<rect x="99.21" y="123.09" width="15" height="15.454"/>
			<polygon points="114.214,40 137.587,40 137.587,25 99.214,25 99.214,105.479 114.214,105.479 			"/>
			<path d="M113.168,228.203l3.325,4.474c0.63,0.85,15.756,21.055,40.318,41.493c32.972,27.435,67.271,41.936,99.189,41.936
				c31.918,0,66.217-14.501,99.189-41.936c24.563-20.439,39.689-40.643,40.32-41.493l3.325-4.474l-3.325-4.474
				c-0.632-0.85-15.758-21.055-40.32-41.493c-32.147-26.749-65.553-41.196-96.786-41.903c-0.798-0.021-1.599-0.034-2.402-0.034
				c-0.803,0-1.604,0.012-2.402,0.034c-31.233,0.707-64.64,15.154-96.786,41.903c-24.563,20.439-39.688,40.643-40.32,41.493
				L113.168,228.203z M331.259,182.835c23.774,16.792,41.422,36.649,48.637,45.368c-7.217,8.723-24.875,28.59-48.662,45.385
				c8.03-13.259,12.658-28.797,12.658-45.398C343.892,211.607,339.274,196.084,331.259,182.835z M256,155.299
				c40.192,0,72.892,32.699,72.892,72.892c0,40.192-32.699,72.892-72.892,72.892s-72.892-32.699-72.892-72.892
				S215.808,155.299,256,155.299z M180.741,182.835c-8.015,13.249-12.633,28.773-12.633,45.355c0,16.6,4.627,32.139,12.658,45.398
				c-23.79-16.797-41.447-36.666-48.662-45.386C139.319,219.484,156.967,199.627,180.741,182.835z"/>
			<path d="M256,273.353c24.902,0,45.162-20.26,45.162-45.162c0-24.902-20.26-45.162-45.162-45.162s-45.162,20.26-45.162,45.162
				C210.838,253.093,231.098,273.353,256,273.353z M256,198.029c16.632,0,30.162,13.531,30.162,30.162
				c0,16.631-13.53,30.162-30.162,30.162s-30.162-13.531-30.162-30.162S239.368,198.029,256,198.029z"/>
			<rect x="269.32" y="45.4" width="118.07" height="15"/>
			<rect x="269.32" y="83.43" width="118.07" height="15"/>
			<rect x="126.28" y="345.96" width="140.77" height="15"/>
			<rect x="126.28" y="395.63" width="113.53" height="15"/>
			<rect x="126.28" y="445.3" width="113.53" height="15"/>
		</g>
	</g>
</g>
<g>
</g>
<g>
</g>
<g>
</g>
<g>
</g>
<g>
</g>
<g>
</g>
<g>
</g>
<g>
</g>
<g>
</g>
<g>
</g>
<g>
</g>
<g>
</g>
<g>
</g>
<g>
</g>
<g>
</g>
</svg>
