<?xml version="1.0" encoding="UTF-8" standalone="no"?><!DOCTYPE svg PUBLIC "-//W3C//DTD SVG 1.1//EN" "http://www.w3.org/Graphics/SVG/1.1/DTD/svg11.dtd"><svg width="100%" height="100%" viewBox="0 0 128 128" version="1.1" xmlns="http://www.w3.org/2000/svg" xmlns:xlink="http://www.w3.org/1999/xlink" xml:space="preserve" xmlns:serif="http://www.serif.com/" style="fill-rule:evenodd;clip-rule:evenodd;stroke-linejoin:round;stroke-miterlimit:2;"><path d="M0,35l0,50c0.002,2.193 1.807,3.998 4,4l5,0l0,-4l-5,0l0,-38l5,0l0,-4l-5,0l0,-8l5,0l0,-4l-5,0c-2.193,0.003 -3.997,1.807 -4,4Z" style="fill:#5852a3;fill-rule:nonzero;"/><path d="M124,31l-5,0l0,4l5,0l0,8l-5,0l0,4l5.001,0l0.001,38l-5.002,0l-0,4l5,0c2.193,-0.002 3.998,-1.807 4,-4l0,-50c-0.003,-2.193 -1.807,-3.997 -4,-4Z" style="fill:#5852a3;fill-rule:nonzero;"/><path d="M111,24l-94,0c-2.193,0.003 -3.997,1.807 -4,4l0,64c0.002,2.193 1.807,3.998 4,4l37,0l0,4l-9,0c-1.097,0 -2,0.903 -2,2c0,1.097 0.903,2 2,2l38,0c1.097,0 2,-0.903 2,-2c0,-1.097 -0.903,-2 -2,-2l-9,0l0,-4l37,0c2.193,-0.002 3.998,-1.807 4,-4l0,-64c-0.003,-2.193 -1.807,-3.997 -4,-4Zm-94,4l94,0l0,12l-94,0l0,-12Zm53,72l-12,0l0,-4l12,0l0,4Zm-53,-8l0,-48l94.001,0l0.001,48l-94.002,0Z" style="fill:#5852a3;fill-rule:nonzero;"/><circle cx="25" cy="34" r="2" style="fill:#5852a3;"/><circle cx="33" cy="34" r="2" style="fill:#5852a3;"/><path d="M103.334,32l-46.334,0c-1.097,0 -2,0.903 -2,2c0,1.097 0.903,2 2,2l46.334,0c1.097,0 1.999,-0.903 1.999,-2c0.001,-1.097 -0.902,-2 -1.999,-2Z" style="fill:#5852a3;fill-rule:nonzero;"/></svg>