<?xml version="1.0" encoding="UTF-8" standalone="no"?><!DOCTYPE svg PUBLIC "-//W3C//DTD SVG 1.1//EN" "http://www.w3.org/Graphics/SVG/1.1/DTD/svg11.dtd"><svg width="100%" height="100%" viewBox="0 0 512 512" version="1.1" xmlns="http://www.w3.org/2000/svg" xmlns:xlink="http://www.w3.org/1999/xlink" xml:space="preserve" xmlns:serif="http://www.serif.com/" style="fill-rule:evenodd;clip-rule:evenodd;stroke-linejoin:round;stroke-miterlimit:2;"><g><g><path d="M470.137,50.714c-30.876,-27.232 -72.487,-38.891 -113.017,-31.667c-42.016,7.518 -78.817,32.632 -101.133,69.017c-22.316,-36.385 -59.117,-61.499 -101.133,-69.017c-40.529,-7.213 -82.136,4.445 -113.017,31.667c-37.134,34.033 -50.392,91.55 -36.375,157.817c0.052,0.249 0.219,0.434 0.292,0.673c0.357,1.081 0.904,2.089 1.616,2.977c0.161,0.194 0.227,0.434 0.41,0.617c0.236,0.176 0.481,0.339 0.735,0.489c0.435,0.357 0.905,0.67 1.403,0.932c0.951,0.499 1.99,0.811 3.059,0.917c0.283,0.028 0.552,0.163 0.835,0.163c0.305,-0.043 0.608,-0.102 0.906,-0.177c0.287,0.013 0.574,0.011 0.86,-0.007c0.25,-0.053 0.435,-0.219 0.676,-0.292c0.54,-0.17 1.061,-0.395 1.554,-0.672c0.509,-0.266 0.989,-0.585 1.432,-0.952c0.19,-0.159 0.426,-0.223 0.604,-0.401l30.017,-30.009l0.1,-0.066c6.58,-6.599 17.241,-6.688 23.931,-0.201c6.69,6.487 6.929,17.146 0.535,23.926l-49.233,49.233c-2.164,2.151 -3.014,5.295 -2.23,8.244c0.784,2.949 3.084,5.255 6.03,6.047c2.946,0.792 6.092,-0.049 8.25,-2.207l48.694,-48.693c0.067,-0.064 0.156,-0.082 0.223,-0.148c0.127,-0.127 0.208,-0.28 0.333,-0.408l29.594,-29.594c0.075,-0.07 0.175,-0.091 0.248,-0.164c6.745,-6.467 17.388,-6.467 24.133,0c6.614,6.637 6.648,17.364 0.075,24.042l-0.1,0.066l-90.858,90.867c-2.155,2.156 -2.997,5.297 -2.208,8.242c0.789,2.945 3.089,5.244 6.033,6.033c2.944,0.789 6.086,-0.053 8.242,-2.208l78.875,-78.783l0.206,-0.207c6.743,-6.485 17.452,-6.326 24,0.356c6.548,6.682 6.489,17.392 -0.131,24.002l-18.089,18.092l-0.01,0.008l-0.004,0.005l-65.93,65.933c-2.156,2.156 -2.997,5.297 -2.208,8.242c0.789,2.944 3.089,5.244 6.033,6.033c2.944,0.789 6.086,-0.053 8.242,-2.208l65.944,-65.949c6.666,-6.664 17.472,-6.661 24.136,0.005c6.664,6.666 6.662,17.472 -0.005,24.136c-0.036,0.036 -0.046,0.087 -0.082,0.124l-66.134,66.134c-0.043,0.043 -0.054,0.102 -0.096,0.145c-0.044,0.045 -0.104,0.06 -0.146,0.105c-0.312,0.417 -0.582,0.862 -0.808,1.331c-0.331,0.442 -0.618,0.916 -0.858,1.413c-0.158,0.528 -0.264,1.07 -0.315,1.618c-0.347,1.031 -0.324,2.151 0.063,3.168c0.074,0.547 0.202,1.086 0.381,1.608c0.266,0.499 0.579,0.971 0.937,1.41c0.24,0.448 0.522,0.873 0.843,1.268c0.043,0.043 0.102,0.055 0.145,0.096c0.045,0.043 0.06,0.103 0.105,0.145c41.675,37.435 86.808,70.832 134.792,99.742c2.733,1.667 6.168,1.667 8.9,0c47.983,-28.91 93.116,-62.307 134.791,-99.742c0.046,-0.042 0.06,-0.102 0.105,-0.145c0.043,-0.042 0.102,-0.054 0.145,-0.096c0.32,-0.395 0.602,-0.82 0.843,-1.268c0.357,-0.438 0.671,-0.911 0.937,-1.41c0.272,-1.051 0.502,-2.113 0.687,-3.183c-0.031,-0.538 -0.112,-1.071 -0.244,-1.593c-0.051,-0.549 -0.156,-1.091 -0.315,-1.618c-0.24,-0.497 -0.528,-0.971 -0.858,-1.413c-0.226,-0.469 -0.497,-0.914 -0.809,-1.331c-0.042,-0.046 -0.102,-0.06 -0.146,-0.105c-0.042,-0.043 -0.053,-0.102 -0.096,-0.145l-66.134,-66.134c-0.036,-0.037 -0.046,-0.087 -0.082,-0.124c-6.666,-6.664 -6.668,-17.47 -0.005,-24.136c6.664,-6.666 17.47,-6.668 24.136,-0.005l65.944,65.949c3.332,3.332 8.734,3.332 12.067,0c3.332,-3.332 3.332,-8.735 -0,-12.067l-65.929,-65.936l-0.004,-0.005l-0.01,-0.008l-18.089,-18.093c-4.313,-4.311 -5.997,-10.595 -4.42,-16.485c1.577,-5.89 6.177,-10.492 12.067,-12.071c5.89,-1.579 12.175,0.104 16.487,4.415l0.102,0.068l78.715,78.707c3.337,3.303 8.716,3.29 12.036,-0.031c3.32,-3.32 3.334,-8.699 0.03,-12.036l-78.751,-78.676l-0.066,-0.099c-0.054,-0.055 -0.121,-0.09 -0.176,-0.144l-11.866,-11.948l-0.025,-0.017c-6.657,-6.66 -6.656,-17.455 0.004,-24.112c6.66,-6.657 17.455,-6.656 24.112,0.004c0.073,0.073 0.173,0.095 0.247,0.165l28.786,28.786c0.344,0.41 0.708,0.789 1.162,1.244l0.012,0.014l0.002,0.001l0.006,0.007l48.892,48.808c2.157,2.158 5.303,3 8.25,2.207c2.947,-0.792 5.246,-3.098 6.03,-6.047c0.784,-2.949 -0.066,-6.092 -2.23,-8.244l-48.967,-48.858c-0.148,-0.19 -0.316,-0.364 -0.477,-0.543l-0.04,-0.065c-6.148,-6.734 -5.883,-17.121 0.6,-23.533c6.742,-6.45 17.367,-6.45 24.108,0l30.125,30.117c0.178,0.178 0.415,0.242 0.604,0.401c0.891,0.715 1.902,1.265 2.987,1.623c0.241,0.073 0.426,0.239 0.676,0.292c0.578,0.12 1.167,0.181 1.757,0.181l0.009,0.002l0.008,0c1.037,-0.01 2.063,-0.21 3.027,-0.591c0.265,-0.13 0.523,-0.274 0.773,-0.431c0.684,-0.331 1.319,-0.753 1.89,-1.254c0.102,-0.093 0.236,-0.125 0.335,-0.223c0.18,-0.18 0.245,-0.418 0.405,-0.61c0.44,-0.513 0.816,-1.079 1.118,-1.684c0.192,-0.386 0.354,-0.787 0.482,-1.198c0.117,-0.253 0.221,-0.511 0.311,-0.774c14.018,-66.268 0.76,-123.785 -36.373,-157.818Zm22.443,138.405l-18.51,-18.505c-13.498,-12.888 -34.743,-12.888 -48.242,0c-4.219,4.253 -7.249,9.538 -8.789,15.328l-9.27,-9.27c-0.131,-0.132 -0.308,-0.176 -0.447,-0.297c-11.821,-11.584 -30.266,-12.972 -43.687,-3.287c-13.421,9.685 -17.917,27.627 -10.649,42.496c-11.758,2.241 -21.469,10.503 -25.564,21.749c-4.095,11.246 -1.971,23.819 5.593,33.095c-5.981,1.447 -11.452,4.502 -15.821,8.835c-13.228,13.275 -13.295,34.728 -0.149,48.084c0.063,0.068 0.082,0.158 0.149,0.224l59.822,59.822c-37.724,33.096 -78.216,62.898 -121.03,89.078c-42.814,-26.181 -83.306,-55.982 -121.03,-89.078l59.822,-59.822c0.067,-0.066 0.085,-0.156 0.149,-0.224c13.146,-13.357 13.079,-34.809 -0.149,-48.084c-4.373,-4.329 -9.844,-7.383 -15.824,-8.832c7.561,-9.272 9.688,-21.838 5.6,-33.082c-4.088,-11.244 -13.788,-19.51 -25.539,-21.762c6.327,-13.026 3.728,-28.627 -6.479,-38.899c-13.349,-12.763 -34.334,-12.908 -47.858,-0.33c-0.15,0.131 -0.341,0.179 -0.483,0.322l-9.341,9.341c-1.482,-5.803 -4.483,-11.106 -8.693,-15.366c-13.249,-13.223 -34.676,-13.309 -48.031,-0.193c-0.069,0.065 -0.16,0.084 -0.227,0.151l-18.511,18.505c-7.705,-53.346 4.309,-98.636 33.977,-125.822c27.127,-23.465 63.348,-33.528 98.692,-27.417c40.125,6.658 74.375,32.55 96.433,72.917c1.63,2.561 4.456,4.113 7.492,4.113c3.036,0 5.862,-1.551 7.492,-4.113c22.059,-40.367 56.308,-66.258 96.433,-72.917c35.343,-6.109 71.563,3.953 98.692,27.417c29.668,27.187 41.683,72.477 33.977,125.823Z" style="fill:#5852a3;fill-rule:nonzero;"/></g></g></svg>