<?xml version="1.0" encoding="UTF-8" standalone="no"?><!DOCTYPE svg PUBLIC "-//W3C//DTD SVG 1.1//EN" "http://www.w3.org/Graphics/SVG/1.1/DTD/svg11.dtd"><svg width="100%" height="100%" viewBox="0 0 512 512" version="1.1" xmlns="http://www.w3.org/2000/svg" xmlns:xlink="http://www.w3.org/1999/xlink" xml:space="preserve" xmlns:serif="http://www.serif.com/" style="fill-rule:evenodd;clip-rule:evenodd;stroke-linejoin:round;stroke-miterlimit:2;"><g id="Communication"><path d="M425.172,41.906l-211.402,0c-24.703,-0.358 -45.343,19.635 -45.77,44.336l0,107.664l-81.172,0c-24.989,-0.635 -46.097,19.35 -46.828,44.336l0,135.328c0.731,24.986 21.839,44.971 46.828,44.336l1.172,0l0,42.535c-0,0.01 -0,0.02 -0,0.03c-0,5.285 4.349,9.634 9.634,9.634c2.191,0 4.317,-0.747 6.026,-2.117l62.856,-50.082l131.168,0c24.996,0.365 45.882,-19.864 46.316,-44.859l0,-107.141l1.484,0l62.84,50.071c1.711,1.368 3.837,2.114 6.028,2.114c5.293,0 9.648,-4.355 9.648,-9.648c0,-0 0,-0.001 0,-0.002l0,-42.535l1.172,0c24.989,0.636 46.097,-19.35 46.828,-44.336l0,-135.328c-0.731,-24.986 -21.839,-44.971 -46.828,-44.336Zm-97.172,331.141c-0.428,16.22 -14.095,29.23 -30.316,28.859l-132.946,0c-2.471,0 -4.871,0.839 -6.804,2.379l-53.934,42.973l-0,-34.723c-0.047,-5.868 -4.906,-10.661 -10.773,-10.629l-6.399,0c-16.212,0.637 -30.099,-12.127 -30.828,-28.336l-0,-135.328c0.729,-16.208 14.616,-28.972 30.828,-28.336l81.172,0l-0,11.664c0.427,24.702 21.067,44.695 45.77,44.336l114.23,0l-0,107.141Zm128,-151.477c-0.729,16.209 -14.616,28.973 -30.828,28.336l-6.399,0c-5.867,-0.032 -10.726,4.761 -10.773,10.629l-0,34.723l-53.91,-42.953c-1.938,-1.551 -4.347,-2.397 -6.828,-2.399l-133.492,0c-15.928,0.365 -29.349,-12.409 -29.77,-28.336l-0,-135.328c0.421,-15.926 13.841,-28.701 29.77,-28.336l211.402,0c16.212,-0.636 30.099,12.128 30.828,28.336l-0,135.328Z" style="fill:#5852a3;fill-rule:nonzero;"/><circle cx="136" cy="305.906" r="12" style="fill:#5852a3;"/><circle cx="192" cy="305.906" r="12" style="fill:#5852a3;"/><circle cx="248" cy="305.906" r="12" style="fill:#5852a3;"/><path d="M304,113.906l-64,0c-4.389,0 -8,-3.611 -8,-8c0,-4.388 3.611,-8 8,-8l64,0c4.389,0 8,3.612 8,8c0,4.389 -3.611,8 -8,8Z" style="fill:#5852a3;fill-rule:nonzero;"/><path d="M400,161.906l-160,0c-4.389,0 -8,-3.611 -8,-8c0,-4.388 3.611,-8 8,-8l160,0c4.389,0 8,3.612 8,8c0,4.389 -3.611,8 -8,8Z" style="fill:#5852a3;fill-rule:nonzero;"/><path d="M400,209.906l-30.5,0c-4.389,0 -8,-3.611 -8,-8c0,-4.388 3.611,-8 8,-8l30.5,0c4.389,0 8,3.612 8,8c0,4.389 -3.611,8 -8,8Z" style="fill:#5852a3;fill-rule:nonzero;"/><path d="M336,209.906l-96,0c-4.389,0 -8,-3.611 -8,-8c0,-4.388 3.611,-8 8,-8l96,0c4.389,0 8,3.612 8,8c0,4.389 -3.611,8 -8,8Z" style="fill:#5852a3;fill-rule:nonzero;"/></g></svg>