<?xml version="1.0" encoding="UTF-8" standalone="no"?>
<!DOCTYPE svg PUBLIC "-//W3C//DTD SVG 1.1//EN" "http://www.w3.org/Graphics/SVG/1.1/DTD/svg11.dtd">
<svg width="100%" height="100%" viewBox="0 0 397 67" version="1.1" xmlns="http://www.w3.org/2000/svg" xmlns:xlink="http://www.w3.org/1999/xlink" xml:space="preserve" xmlns:serif="http://www.serif.com/" style="fill-rule:evenodd;clip-rule:evenodd;stroke-linejoin:round;stroke-miterlimit:2;">
    <g transform="matrix(1,0,0,1,-480,-637.565)">
        <g transform="matrix(1,0,0,1,577.072,703.322)">
            <path d="M0,-65.757L13.403,-65.757L13.403,-20.465C13.403,-16.687 13.973,-14.138 15.112,-12.819C16.251,-11.498 18.456,-10.84 21.724,-10.84L23.073,-10.84L23.073,0L21.14,0C16.192,0 12.234,-0.404 9.266,-1.215C5.817,-2.174 3.411,-4.176 2.046,-7.219C0.682,-10.262 0,-15.127 0,-21.815L0,-65.757Z" style="fill-rule:nonzero;"/>
        </g>
        <g transform="matrix(1,0,0,1,631.113,675.976)">
            <path d="M0,6.926L-7.062,6.926C-9.551,6.926 -11.32,7.376 -12.369,8.276C-13.419,9.175 -13.943,10.69 -13.943,12.819C-13.943,14.858 -13.434,16.289 -12.414,17.114C-11.395,17.939 -9.596,18.35 -7.017,18.35C-3.958,18.35 -1.919,17.586 -0.899,16.057C-0.3,15.156 0,13.418 0,10.839L0,6.926ZM0,-1.889L0,-3.464C0,-8.35 -2.339,-10.795 -7.017,-10.795C-10.495,-10.795 -13.464,-9.265 -15.922,-6.207L-25.143,-12.683C-20.945,-18.531 -14.438,-21.455 -5.622,-21.455C3.373,-21.455 9.16,-18.605 11.739,-12.908C12.848,-10.449 13.403,-6.492 13.403,-1.035L13.403,27.346L2.923,27.346L2.114,24.827C-0.555,27.196 -4.753,28.381 -10.48,28.381C-16.087,28.381 -20.166,27.286 -22.713,25.097C-24.093,23.899 -25.083,22.369 -25.682,20.51C-26.282,18.651 -26.582,16.207 -26.582,13.178C-26.582,7.451 -25.308,3.508 -22.759,1.35C-20.21,-0.81 -15.547,-1.889 -8.771,-1.889L0,-1.889Z" style="fill-rule:nonzero;"/>
        </g>
        <g transform="matrix(1,0,0,1,679.433,660.054)">
            <path d="M0,21.814L0,16.957C0,12.819 -0.578,9.813 -1.731,7.938C-2.886,6.065 -4.723,5.127 -7.241,5.127C-12.099,5.127 -14.527,8.186 -14.527,14.303L-14.527,24.512C-14.527,30.6 -12.114,33.643 -7.286,33.643C-4.378,33.643 -2.354,32.369 -1.214,29.82C-0.405,27.991 0,25.323 0,21.814M-27.931,43.268L-27.931,-22.489L-14.527,-22.489L-14.527,-2.878C-11.379,-4.648 -8.051,-5.533 -4.542,-5.533C2.713,-5.533 7.736,-3.177 10.525,1.53C12.414,4.678 13.358,9.491 13.358,15.967L13.358,22.848C13.358,29.925 12.189,35.083 9.85,38.321C8.321,40.389 6.409,41.904 4.115,42.864C1.822,43.823 -1.095,44.303 -4.633,44.303C-7.572,44.303 -9.88,44.033 -11.559,43.493C-13.239,42.954 -14.993,41.904 -16.821,40.344L-17.631,43.268L-27.931,43.268Z" style="fill-rule:nonzero;"/>
        </g>
        <g transform="matrix(1,0,0,1,697.303,655.556)">
            <path d="M0,47.766L0,39.356L19.521,10.75L1.709,10.75L1.709,0L36.117,0L36.117,8.411L16.597,37.016L37.466,37.016L37.466,47.766L0,47.766Z" style="fill-rule:nonzero;"/>
        </g>
        <g transform="matrix(1,0,0,1,768.133,676.876)">
            <path d="M0,5.127L0,-0.046C0,-4.272 -0.578,-7.27 -1.731,-9.04C-2.886,-10.81 -4.843,-11.694 -7.601,-11.694C-10.9,-11.694 -13.074,-10.464 -14.123,-8.007C-14.873,-6.207 -15.247,-3.554 -15.247,-0.046L-15.247,5.127C-15.247,9.386 -14.67,12.398 -13.516,14.167C-12.362,15.937 -10.39,16.821 -7.601,16.821C-4.333,16.821 -2.174,15.592 -1.125,13.133C-0.375,11.334 0,8.665 0,5.127M-28.65,6.116L-28.65,-1.034C-28.65,-8.052 -27.316,-13.163 -24.647,-16.372C-21.319,-20.359 -15.637,-22.354 -7.601,-22.354C-0.135,-22.354 5.232,-20.696 8.501,-17.384C11.769,-14.07 13.403,-8.62 13.403,-1.034L13.403,6.116C13.403,13.163 12.069,18.29 9.4,21.499C6.072,25.487 0.39,27.481 -7.646,27.481C-15.112,27.481 -20.48,25.824 -23.748,22.511C-27.017,19.198 -28.65,13.733 -28.65,6.116" style="fill-rule:nonzero;"/>
        </g>
        <g transform="matrix(1,0,0,1,787.308,654.521)">
            <path d="M0,48.801L0,1.035L10.03,1.035L11.154,4.678C12.743,2.969 14.482,1.762 16.372,1.058C18.261,0.354 20.689,0 23.658,0C31.753,0 36.956,3.074 39.265,9.221C40.194,11.71 40.659,15.819 40.659,21.545L40.659,48.801L27.256,48.801L27.256,23.074C27.256,19.776 26.971,17.302 26.401,15.653C25.412,12.863 23.462,11.47 20.554,11.47C17.916,11.47 16.063,12.407 15,14.281C13.935,16.155 13.403,19.402 13.403,24.019L13.403,48.801L0,48.801Z" style="fill-rule:nonzero;"/>
        </g>
        <g transform="matrix(1,0,0,1,847.561,685.106)">
            <path d="M0,-11.334L15.832,-11.334L15.832,-12.503C15.832,-15.172 15.142,-17.226 13.763,-18.665C12.383,-20.105 10.419,-20.824 7.871,-20.824C4.962,-20.824 2.848,-19.864 1.529,-17.946C0.509,-16.417 0,-14.573 0,-12.413L0,-11.334ZM0.09,-2.249L0.09,-1.079C0.09,5.607 3.058,8.95 8.995,8.95C11.184,8.95 12.991,8.562 14.415,7.781C15.839,7.002 17.136,5.697 18.306,3.868L28.201,9.445C26.161,12.954 23.545,15.466 20.352,16.979C17.159,18.493 12.863,19.251 7.466,19.251C2.008,19.251 -2.219,18.335 -5.217,16.507C-8.756,14.348 -11.125,10.989 -12.324,6.432C-13.043,3.704 -13.403,0.3 -13.403,-3.778L-13.403,-6.837C-13.403,-14.692 -12.084,-20.39 -9.445,-23.928C-7.707,-26.267 -5.518,-27.945 -2.878,-28.966C-0.061,-30.045 3.418,-30.585 7.556,-30.585C15.022,-30.585 20.375,-28.747 23.613,-25.075C26.851,-21.401 28.47,-15.321 28.47,-6.837L28.47,-2.249L0.09,-2.249Z" style="fill-rule:nonzero;"/>
        </g>
        <g>
            <g transform="matrix(1,0,0,1,493.318,703.1)">
                <path d="M0,-48L-13.318,-48L-13.318,-6.012C-13.318,-2.691 -10.627,0 -7.307,0L0,0L0,-48Z" style="fill:rgb(255,29,37);fill-rule:nonzero;"/>
            </g>
            <g transform="matrix(1,0,0,1,527.69,689.775)">
                <path d="M0,-21.35L-21.364,0.014L-21.373,0.006L-21.373,13.325L-37.69,13.325L-37.69,0.006L-1.958,0.006L18.573,-21.35L18.581,-21.35L18.581,-28.664C18.581,-31.985 15.89,-34.675 12.57,-34.675L-21.373,-34.675L-21.373,-21.358L0,-21.35Z" style="fill:rgb(255,29,37);fill-rule:nonzero;"/>
            </g>
        </g>
    </g>
</svg>
