<?xml version="1.0" encoding="UTF-8" standalone="no"?>
<!DOCTYPE svg PUBLIC "-//W3C//DTD SVG 1.1//EN" "http://www.w3.org/Graphics/SVG/1.1/DTD/svg11.dtd">
<svg width="100%" height="100%" viewBox="0 0 512 512" version="1.1" xmlns="http://www.w3.org/2000/svg" xmlns:xlink="http://www.w3.org/1999/xlink" xml:space="preserve" xmlns:serif="http://www.serif.com/" style="fill-rule:evenodd;clip-rule:evenodd;stroke-linejoin:round;stroke-miterlimit:2;">
    <path d="M76.373,452.181L380.565,452.181L366.037,405.141L400.789,434.965L432.64,463.509L490.667,512L490.667,52.8C489.216,24.256 464.64,0 434.176,0L76.48,0.064C46.037,0.064 21.333,24.363 21.333,52.907L21.333,399.36C21.333,429.461 45.995,452.181 76.373,452.181ZM301.397,121.237L300.693,121.493L300.949,121.237L301.397,121.237ZM138.603,148.309C177.707,119.851 213.952,121.216 213.952,121.216L216.875,124.096C169.024,135.509 147.328,156.885 147.328,156.885C147.328,156.885 153.131,154.048 163.264,149.717C227.712,124.373 298.091,126.208 363.243,158.293C363.243,158.293 341.504,138.304 296.597,125.504L300.565,121.6C306.773,121.621 339.627,122.773 374.784,148.48C374.784,148.48 414.123,215.68 414.123,298.24C412.821,296.661 389.717,333.781 330.261,335.061C330.261,335.061 320.192,323.669 313.024,313.728C347.797,303.744 360.811,283.776 360.811,283.776C349.397,290.965 338.987,295.232 330.539,299.499C317.547,305.216 304.533,308.032 291.541,310.912C230.016,320.896 195.477,304.192 162.837,290.944L151.68,285.269C151.68,285.269 164.672,305.237 198.059,315.221C189.291,325.227 180.608,336.597 180.608,336.597C121.173,335.189 99.499,298.069 99.499,298.069C99.499,215.381 138.603,148.309 138.603,148.309Z" style="fill:white;fill-rule:nonzero;"/>
    <path d="M305.237,272.448C320.405,272.448 332.757,259.648 332.757,243.861C332.757,228.181 320.469,215.381 305.237,215.381L305.237,215.445C290.133,215.445 277.76,228.203 277.717,243.989C277.717,259.648 290.069,272.448 305.237,272.448Z" style="fill:white;fill-rule:nonzero;"/>
    <path d="M206.72,272.448C221.888,272.448 234.24,259.648 234.24,243.861C234.24,228.181 221.973,215.381 206.805,215.381L206.72,215.445C191.552,215.445 179.2,228.203 179.2,243.989C179.2,259.648 191.552,272.448 206.72,272.448Z" style="fill:white;fill-rule:nonzero;"/>
</svg>
