<svg id="outline" height="512" viewBox="0 0 512 512" width="512" xmlns="http://www.w3.org/2000/svg"><path d="m488 328h-152a8 8 0 0 0 -7.486 5.2l-63.142-63.141a47.685 47.685 0 0 0 -33.94-14.059h-40.232a40.028 40.028 0 0 0 .805-8v-35.056l3.379-1.689a22.833 22.833 0 0 0 -10.217-43.255h-33.167a40.045 40.045 0 0 0 -40 40v40a40.028 40.028 0 0 0 .805 8h-40.805a56.063 56.063 0 0 0 -56 56v184h16v-108.686l55.6 55.6a71.525 71.525 0 0 0 50.91 21.086h61.49v8a24.027 24.027 0 0 0 24 24h264a8 8 0 0 0 8-8v-152a8 8 0 0 0 -8-8zm-160 84.686-44.686-44.686 28.686-28.686 16 16zm-51.173-28.546a42.315 42.315 0 0 0 -15.6 4.3l-13.227 6.616v-39.743zm-148.827-104.162a39.968 39.968 0 0 0 32 7.217v.805a16 16 0 0 1 -32 0zm0-31.978v-12.687l19.313-19.313h28.687v32a24 24 0 0 1 -48 0zm24-64h33.167a6.833 6.833 0 0 1 3.056 12.944l-6.112 3.056h-38.111a8 8 0 0 0 -5.657 2.343l-10.343 10.343v-4.686a24.027 24.027 0 0 1 24-24zm-120 128a40.045 40.045 0 0 1 40-40h40v16a32 32 0 0 0 64 0v-8.022a40.311 40.311 0 0 0 7.978-7.978h47.454a31.791 31.791 0 0 1 22.627 9.373l46.627 46.627-28.686 28.686-26.343-26.343a8 8 0 0 0 -13.657 5.657v64h-76.687l-77.656-77.657-11.314 11.314 38.343 38.343-32.686 32.686-40-40zm66.912 119.6-15.598-15.6 32.686-32.686 30.343 30.343a8 8 0 0 0 5.657 2.343h88a7.994 7.994 0 0 0 3.578-.845l24.807-12.4a26.069 26.069 0 0 1 31.685 6.628l27.061 32.474a3.747 3.747 0 0 1 -2.878 6.143 4.788 4.788 0 0 1 -2.856-.952l-28.597-21.448a8 8 0 0 0 -9.6 0l-29.867 22.4h-114.823a55.63 55.63 0 0 1 -39.598-16.4zm197.088 16.4h-16l8-6zm-80 24v-8h112v16h-104a8.009 8.009 0 0 1 -8-8zm264 8h-136v-136h136z"/><path d="m416 440a32 32 0 1 0 -32-32 32.036 32.036 0 0 0 32 32zm0-48a16 16 0 1 1 -16 16 16.019 16.019 0 0 1 16-16z"/><path d="m472 16h-224a24.027 24.027 0 0 0 -24 24v200h16v-200a8.009 8.009 0 0 1 8-8h224a8.009 8.009 0 0 1 8 8v208a8.009 8.009 0 0 1 -8 8h-64a8 8 0 0 0 -8 8v24.455l-43.351-30.965a8 8 0 0 0 -4.649-1.49h-72v16h69.437l53.914 38.51a8 8 0 0 0 12.649-6.51v-32h56a24.027 24.027 0 0 0 24-24v-208a24.027 24.027 0 0 0 -24-24z"/><circle cx="256" cy="48" r="8"/><circle cx="280" cy="48" r="8"/><circle cx="304" cy="48" r="8"/><path d="m264 80h16v16h-16z"/><path d="m304 80h48v16h-48z"/><path d="m368 80h16v16h-16z"/><path d="m264 112h16v16h-16z"/><path d="m304 112h24v16h-24z"/><path d="m344 112h88v16h-88z"/><path d="m264 144h16v16h-16z"/><path d="m304 144h64v16h-64z"/><path d="m384 144h16v16h-16z"/><path d="m264 176h16v16h-16z"/><path d="m304 176h112v16h-112z"/><path d="m432 176h16v16h-16z"/><path d="m264 208h16v16h-16z"/><path d="m304 208h72v16h-72z"/><path d="m392 208h16v16h-16z"/></svg>