<svg id="outline" height="512" viewBox="0 0 512 512" width="512" xmlns="http://www.w3.org/2000/svg"><path d="m472 16h-432a24.028 24.028 0 0 0 -24 24v432a24.028 24.028 0 0 0 24 24h432a24.028 24.028 0 0 0 24-24v-432a24.028 24.028 0 0 0 -24-24zm-266.073 296h7.273l-51.13 168h-7.27zm92.146 0 43.227 142.027-5.923 4.442-44.577-146.469zm18.02-77.732a24.054 24.054 0 0 1 -12.093-20.838v-61.43a8.8 8.8 0 0 1 17.563-.777l6.487 57.671a8 8 0 0 0 5.42 6.695l7.071 2.357-15.9 21.2zm40.447-10.989 51.049 17.021a23.97 23.97 0 0 1 16.411 22.764v48.936h-64v-48a8 8 0 0 0 -4.031-6.946l-17.332-9.9zm12.43-41.622a3.314 3.314 0 0 1 2.343-5.657h21.687a7.008 7.008 0 0 1 7 7v4.056l-4.422-2.211a7.994 7.994 0 0 0 -3.578-.845h-20.687zm7.03 18.343h14.111l9.889 4.944v15.956l-24-8zm70.091 81.4c.717.716 1.391 1.463 2.035 2.23l-8.126 5.422v-13.739zm9.909 23.927a33.949 33.949 0 0 1 -7.414 21.133l-8.586 10.734v-28.913l15.228-10.152a34.085 34.085 0 0 1 .772 7.198zm-72 46.673v96h-24v-120h64v120h-24v-96zm-138.8-40-7.3 24h-15.277l7.3-24zm-27.45 40h15.276l-9.739 32h-15.273zm-14.608 48h15.278l-9.739 32h-15.275zm-14.609 48h15.276l-9.739 32h-15.27zm73.391-136h7.276l-51.13 168h-7.27zm23.653 88h15.275l9.739 32h-15.272zm-4.87-16-8.348-27.429 7.638-25.1 15.989 52.529zm-28.707 39.476 17.2 56.524h-34.4zm8.362-27.476 3.638-11.953 29.2 95.953h-7.276zm39.826 52h15.276l6.294 20.681-6.558 4.919a8 8 0 0 0 -3.2 6.4h-2.073zm-4.188-152h-8v-16h8zm-24 0h-64v-16h64zm61.333 184 21.333-16h29.334v16zm66.667 0v-16h24v16zm80-8a8.009 8.009 0 0 1 -8 8h-32v-117.194l21.081-26.35a50.014 50.014 0 0 0 10.919-31.129 49.505 49.505 0 0 0 -14.6-35.236l-19.34-19.34a39.935 39.935 0 0 0 -22.06-24.343v-43.408a23.026 23.026 0 0 0 -23-23h-21.687a19.313 19.313 0 0 0 -13.656 32.97l2.343 2.343v12.254l-16.622-5.54-5.9-52.495a24.8 24.8 0 0 0 -49.478 2.468v61.43a40.086 40.086 0 0 0 20.154 34.729l35.846 20.484v139.31l-32-105.143v-30.81a8 8 0 0 0 -8-8h-104a8 8 0 0 0 -8 8v30.81l-53.927 177.19h-98.073a8.009 8.009 0 0 1 -8-8v-432a8.009 8.009 0 0 1 8-8h432a8.009 8.009 0 0 1 8 8z"/><circle cx="48" cy="48" r="8"/><circle cx="72" cy="48" r="8"/><circle cx="96" cy="48" r="8"/><path d="m160 240h-104a8 8 0 0 0 -8 8v160a8 8 0 0 0 8 8h88v-16h-80v-144h88v80h16v-88a8 8 0 0 0 -8-8z"/><path d="m56 432h24v16h-24z"/><path d="m96 432h40v16h-40z"/><path d="m48 88v48a8 8 0 0 0 8 8h72a8 8 0 0 0 8-8v-48a8 8 0 0 0 -8-8h-72a8 8 0 0 0 -8 8zm16 8h56v32h-56z"/><path d="m160 96h16v16h-16z"/><path d="m192 96h40v16h-40z"/><path d="m160 128h40v16h-40z"/><path d="m56 160h48v16h-48z"/><path d="m120 160h112v16h-112z"/><path d="m216 128h16v16h-16z"/><path d="m56 192h88v16h-88z"/><path d="m160 192h16v16h-16z"/><path d="m192 192h40v16h-40z"/><path d="m456 80h-200a8 8 0 0 0 -8 8v136a8 8 0 0 0 8 8h24v-16h-16v-120h184v120h-16v16h24a8 8 0 0 0 8-8v-136a8 8 0 0 0 -8-8z"/></svg>