<svg id="Layer_1" enable-background="new 0 0 256 256" height="512" viewBox="0 0 256 256" width="512" xmlns="http://www.w3.org/2000/svg"><path d="m243.15 183.71h-230.3c-4.888 0-8.85-3.962-8.85-8.85v-141.797c0-4.888 3.962-8.85 8.85-8.85h230.3c4.888 0 8.85 3.962 8.85 8.85v141.797c0 4.888-3.962 8.85-8.85 8.85z" fill="#f4efed"/><path d="m243.15 24.213h-10c4.888 0 8.85 3.962 8.85 8.85v141.797c0 4.888-3.962 8.85-8.85 8.85h10c4.888 0 8.85-3.962 8.85-8.85v-141.797c0-4.887-3.962-8.85-8.85-8.85z" fill="#d6d1cf"/><path d="m12.85 183.71h10c-4.888 0-8.85-3.962-8.85-8.85v-141.797c0-4.888 3.962-8.85 8.85-8.85h-10c-4.888 0-8.85 3.962-8.85 8.85v141.797c0 4.888 3.962 8.85 8.85 8.85z" fill="#fff"/><path d="m243.15 185.71h-230.3c-5.983 0-10.85-4.867-10.85-10.85v-141.797c0-5.982 4.867-10.85 10.85-10.85h230.3c5.982 0 10.85 4.867 10.85 10.85v141.797c0 5.983-4.867 10.85-10.85 10.85zm-230.3-159.496c-3.777 0-6.85 3.072-6.85 6.85v141.796c0 3.777 3.073 6.85 6.85 6.85h230.3c3.777 0 6.85-3.072 6.85-6.85v-141.797c0-3.777-3.072-6.85-6.85-6.85h-230.3z" fill="#690589"/><path d="m208.901 219.57h-161.802v-11.854c0-4.888 3.962-8.85 8.85-8.85h144.102c4.888 0 8.85 3.962 8.85 8.85z" fill="#7bac51"/><path d="m200.051 198.865h-10c4.888 0 8.85 3.962 8.85 8.85v11.855h10v-11.855c0-4.887-3.962-8.85-8.85-8.85z" fill="#5d8e33"/><path d="m55.949 198.865h10c-4.888 0-8.85 3.962-8.85 8.85v11.855h-10v-11.855c0-4.887 3.962-8.85 8.85-8.85z" fill="#99ca6f"/><path d="m80.503 183.71h94.993v15.156h-94.993z" fill="#5d8e33"/><path d="m12 61.418c-1.104 0-2-.896-2-2v-12c0-1.104.896-2 2-2s2 .896 2 2v12c0 1.104-.896 2-2 2z" fill="#690589"/><path d="m208.901 221.57h-161.802c-1.104 0-2-.896-2-2v-11.854c0-5.983 4.867-10.851 10.85-10.851h144.102c5.983 0 10.851 4.867 10.851 10.851v11.854c-.001 1.105-.896 2-2.001 2zm-159.802-4h157.802v-9.854c0-3.777-3.073-6.851-6.851-6.851h-144.101c-3.777 0-6.85 3.073-6.85 6.851z" fill="#690589"/><path d="m175.497 200.865h-94.994c-1.104 0-2-.896-2-2v-15.155c0-1.104.896-2 2-2h94.994c1.104 0 2 .896 2 2v15.155c0 1.105-.895 2-2 2zm-92.994-4h90.994v-11.155h-90.994z" fill="#690589"/><path d="m69.863 60.583c-25.556 0-46.274 20.717-46.274 46.274s20.717 46.274 46.274 46.274 46.274-20.717 46.274-46.274-20.718-46.274-46.274-46.274zm0 81.029c-19.194 0-34.755-15.56-34.755-34.755s15.56-34.755 34.755-34.755 34.755 15.56 34.755 34.755c-.001 19.194-15.561 34.755-34.755 34.755z" fill="#fcc24c"/><ellipse cx="69.863" cy="106.857" fill="#f4efed" rx="34.755" ry="34.755" transform="matrix(.191 -.982 .982 .191 -48.345 155.088)"/><path d="m69.863 60.583c-.899 0-1.79.032-2.676.083 24.31 1.387 43.598 21.534 43.598 46.191s-19.287 44.804-43.598 46.191c.886.051 1.777.083 2.676.083 25.556 0 46.274-20.717 46.274-46.274s-20.718-46.274-46.274-46.274z" fill="#dea42e"/><path d="m69.863 153.131c.899 0 1.79-.032 2.676-.083-24.31-1.387-43.597-21.534-43.597-46.191s19.287-44.804 43.597-46.191c-.886-.051-1.777-.083-2.676-.083-25.556 0-46.274 20.717-46.274 46.274s20.717 46.274 46.274 46.274z" fill="#fce06a"/><path d="m69.863 172.945c2.013 0 3.89.563 5.501 1.524v-21.675c-1.805.214-3.639.337-5.501.337-1.863 0-3.696-.123-5.502-.337v21.675c1.612-.962 3.489-1.524 5.502-1.524z" fill="#f4efed"/><path d="m75.364 176.469c-.354 0-.709-.094-1.024-.282-2.726-1.625-6.229-1.625-8.954 0-.619.366-1.387.376-2.012.021s-1.012-1.02-1.012-1.739v-21.675c0-.571.245-1.115.671-1.495.427-.38.995-.56 1.564-.491 3.669.436 6.862.437 10.532 0 .569-.067 1.137.111 1.564.491s.671.924.671 1.495v21.675c0 .72-.387 1.384-1.012 1.739-.307.174-.647.261-.988.261zm-5.501-5.525c1.187 0 2.365.168 3.501.495v-16.441c-2.357.177-4.6.179-7.003-.002v16.443c1.137-.327 2.315-.495 3.502-.495z" fill="#690589"/><path d="m69.863 143.611c-20.267 0-36.755-16.488-36.755-36.755s16.488-36.754 36.755-36.754 36.755 16.487 36.755 36.754-16.489 36.755-36.755 36.755zm0-69.508c-18.061 0-32.755 14.693-32.755 32.754 0 18.062 14.694 32.755 32.755 32.755s32.755-14.693 32.755-32.755c0-18.061-14.694-32.754-32.755-32.754z" fill="#690589"/><path d="m69.863 155.131c-26.618 0-48.274-21.656-48.274-48.274s21.656-48.273 48.274-48.273 48.274 21.655 48.274 48.273-21.656 48.274-48.274 48.274zm0-92.548c-24.413 0-44.274 19.861-44.274 44.273 0 24.413 19.861 44.274 44.274 44.274s44.274-19.861 44.274-44.274c0-24.412-19.862-44.273-44.274-44.273z" fill="#690589"/><path d="m69.863 231.786c-5.945 0-10.764-4.819-10.764-10.764v-37.314c0-5.945 4.819-10.764 10.764-10.764 5.945 0 10.764 4.819 10.764 10.764v37.314c-.001 5.945-4.82 10.764-10.764 10.764z" fill="#ff4397"/><path d="m69.863 172.945c-.996 0-1.955.146-2.87.399 4.549 1.258 7.894 5.416 7.894 10.365v37.314c0 4.949-3.344 9.107-7.893 10.365.915.253 1.875.399 2.87.399 5.945 0 10.764-4.819 10.764-10.764v-37.314c-.002-5.945-4.821-10.764-10.765-10.764z" fill="#e12579"/><g fill="#690589"><path d="m69.863 233.786c-7.038 0-12.764-5.726-12.764-12.764v-37.313c0-7.038 5.726-12.765 12.764-12.765s12.764 5.727 12.764 12.765v37.313c-.001 7.039-5.726 12.764-12.764 12.764zm0-58.842c-4.833 0-8.764 3.932-8.764 8.765v37.313c0 4.832 3.931 8.764 8.764 8.764s8.764-3.932 8.764-8.764v-37.313c-.001-4.833-3.932-8.765-8.764-8.765z"/><path d="m54.003 118.138c1.115-1.363 3.162-1.549 4.524-.434 2.728 2.232 7.438 4.835 11.838 4.773 3.1 0 5.888-.93 7.748-2.294 1.86-1.363 2.665-2.913 2.665-4.463 0-.805-.186-1.363-.558-1.983s-.93-1.239-1.86-1.859c-1.797-1.178-4.834-2.232-8.491-2.913h-.124c-2.913-.558-5.64-1.302-7.995-2.417-2.356-1.115-4.401-2.665-5.765-4.835-.93-1.488-1.426-3.223-1.426-5.082 0-3.719 2.108-6.942 4.958-9.049 2.913-2.108 6.694-3.285 10.723-3.285 5.95 0 10.351 2.913 13.511 4.958 1.426.992 1.86 2.975.868 4.401-.93 1.488-2.913 1.922-4.401.93-3.161-2.108-6.198-3.967-9.979-3.967-2.79 0-5.269.867-6.942 2.107s-2.355 2.603-2.355 3.905c0 .743.124 1.239.434 1.735s.868 1.054 1.673 1.612c1.612 1.115 4.401 2.107 7.748 2.727h.124c3.162.619 6.075 1.426 8.554 2.603 2.541 1.24 4.772 2.851 6.198 5.145.93 1.487 1.487 3.347 1.487 5.268 0 3.967-2.231 7.376-5.33 9.608-3.037 2.231-7.066 3.533-11.466 3.533-6.693-.062-12.334-3.409-15.867-6.198-1.362-1.117-1.548-3.162-.494-4.526z"/><path d="m125.946 125.514v-36.569c0-1.921 1.488-3.409 3.409-3.409h.062.124 20.082c1.797 0 3.41 1.488 3.41 3.409 0 1.922-1.612 3.471-3.41 3.471h-16.797v11.342h14.441c1.86 0 3.409 1.611 3.409 3.409 0 1.922-1.549 3.471-3.409 3.471h-14.441v11.404h16.797c1.797 0 3.41 1.549 3.41 3.471 0 1.86-1.612 3.409-3.41 3.409h-20.082c-.124 0-.124-.062-.124-.062l-.062.062c-1.921.001-3.409-1.549-3.409-3.408z"/><path d="m226.151 90.929c3.843 4.091 6.26 9.546 6.26 15.681 0 6.136-2.417 11.652-6.26 15.681-3.656 4.029-9.111 6.632-14.814 6.632-5.95 0-11.404-2.603-15.185-6.632-3.842-4.03-6.136-9.546-6.136-15.681 0-6.136 2.294-11.59 6.136-15.681 3.781-4.09 9.235-6.632 15.185-6.632 5.703 0 11.157 2.541 14.814 6.632zm-.806 15.681c0-4.215-1.673-8.119-4.214-10.847-2.603-2.789-6.074-4.401-9.793-4.401-3.967 0-7.438 1.612-10.041 4.401-2.603 2.728-4.215 6.632-4.215 10.847s1.612 8.119 4.215 10.785c2.603 2.788 6.074 4.463 10.041 4.463 3.719 0 7.19-1.674 9.793-4.463 2.54-2.666 4.214-6.57 4.214-10.785z"/></g></svg>