<svg viewBox="0 0 1023 1045" xmlns="http://www.w3.org/2000/svg" fill-rule="evenodd" clip-rule="evenodd" stroke-linejoin="round" stroke-miterlimit="2"><path d="M0 1006.38c0 20.794 17.025 37.832 37.831 37.832h947.25c20.788 0 37.813-17.038 37.813-37.832V37.849c0-20.825-17.025-37.85-37.813-37.85H37.831C17.025-.001 0 17.024 0 37.849v968.531z" fill-rule="nonzero"/><path d="M226.391 780.759c111.694-102.907 72.819-230.932 0-312.494v312.494zm-46.4 116.737v-712.85h46.4v209.581c214.638 244.732 96.638 360.182-46.4 503.269" fill="#fff" fill-rule="nonzero"/><path d="M489.319 780.759c-111.7-102.907-72.788-230.932 0-312.494v312.494zm46.431 116.737v-550.65l-46.431 49.125c-214.606 244.706-96.638 358.438 46.431 501.525" fill="#fff" fill-rule="nonzero"/><path fill="#fff" d="M598.114 405.441h45.775v434.281h-45.775z"/><path d="M364.257 244.794v45.1h347.007v611.175h45.118V289.894h151.269v-45.1H364.257z" fill="#fff" fill-rule="nonzero"/></svg>