<?xml version="1.0" encoding="UTF-8" standalone="no"?>
<!DOCTYPE svg PUBLIC "-//W3C//DTD SVG 1.1//EN" "http://www.w3.org/Graphics/SVG/1.1/DTD/svg11.dtd">
<svg width="100%" height="100%" viewBox="0 0 424 420" version="1.1" xmlns="http://www.w3.org/2000/svg" xmlns:xlink="http://www.w3.org/1999/xlink" xml:space="preserve" xmlns:serif="http://www.serif.com/" style="fill-rule:evenodd;clip-rule:evenodd;stroke-linejoin:round;stroke-miterlimit:2;">
    <g id="PS">
        <g transform="matrix(1,0,0,1,-74.164,-44.6771)">
            <path d="M497.257,44.677L74.164,44.677L74.164,464.642L497.257,464.642L497.257,44.677ZM471.239,69.427L97.501,69.427L97.501,441.679L471.239,441.679L471.239,69.427Z" style="fill:rgb(144,202,249);"/>
        </g>
        <g transform="matrix(1,0,0,1,-55.2131,-45.122)">
            <path d="M160,362.667C154.109,362.667 149.333,357.891 149.333,352L149.333,160C149.285,154.625 153.243,150.053 158.57,149.333C189.781,145.066 232.277,144.704 257.706,166.954C270.899,178.669 278.108,195.706 277.333,213.333C277.108,234.966 265.671,254.931 247.125,266.069C224.331,280.251 197.116,285.551 170.666,280.96L170.666,352C170.667,357.891 165.891,362.667 160,362.667ZM170.667,259.115C192.848,264.009 216.063,260.117 235.435,248.256C248.035,241.124 255.875,227.812 256,213.333C256.693,201.907 252.156,190.785 243.669,183.104C222.006,169.308 195.845,164.43 170.666,169.493L170.666,259.115L170.667,259.115Z" style="fill:rgb(144,202,249);fill-rule:nonzero;"/>
            <path d="M342.229,363.157C327.558,363.265 313.307,358.256 301.93,348.992C297.694,344.868 297.604,338.092 301.727,333.856C305.851,329.62 312.627,329.53 316.863,333.653C327.146,341.267 340.398,343.634 352.682,340.053C355.178,338.986 362.794,335.786 362.794,320.064C362.794,305.963 355.199,301.973 336.533,295.637C320.469,290.133 298.666,282.794 298.666,256C297.593,239.386 307.106,223.898 322.41,217.344C342.13,209.727 364.429,213.393 380.671,226.923C384.954,230.97 385.145,237.723 381.098,242.006C377.051,246.289 370.298,246.48 366.015,242.433C355.97,234.794 342.752,232.732 330.858,236.95C323.459,240.238 319.059,247.957 320,256C320,266.517 326.4,269.675 343.232,275.392C360.533,281.216 384,289.195 384,320C385.639,336.809 376.33,352.779 360.896,359.637C354.972,362.047 348.624,363.244 342.229,363.157Z" style="fill:rgb(144,202,249);fill-rule:nonzero;"/>
        </g>
    </g>
</svg>
