<svg id="outline" height="512" viewBox="0 0 512 512" width="512" xmlns="http://www.w3.org/2000/svg"><path d="m472 16h-432a24.028 24.028 0 0 0 -24 24v328a24.028 24.028 0 0 0 24 24h104v-16h-104a8.009 8.009 0 0 1 -8-8v-328a8.009 8.009 0 0 1 8-8h432a8.009 8.009 0 0 1 8 8v328a8.009 8.009 0 0 1 -8 8h-88v16h88a24.028 24.028 0 0 0 24-24v-328a24.028 24.028 0 0 0 -24-24z"/><circle cx="48" cy="48" r="8"/><circle cx="72" cy="48" r="8"/><circle cx="96" cy="48" r="8"/><path d="m387.029 100h33.941v16h-33.941z" transform="matrix(.707 -.707 .707 .707 41.952 317.288)"/><path d="m344 72h16v32h-16z"/><path d="m408 152h32v16h-32z"/><path d="m64 184h128a8 8 0 0 0 8-8v-88a8 8 0 0 0 -8-8h-128a8 8 0 0 0 -8 8v88a8 8 0 0 0 8 8zm8-88h112v72h-112z"/><path d="m64 200h40v16h-40z"/><path d="m120 200h72v16h-72z"/><path d="m64 232h72v16h-72z"/><path d="m64 264h48v16h-48z"/><path d="m152 232h16v16h-16z"/><path d="m128 264h32v16h-32z"/><path d="m64 296h64v16h-64z"/><path d="m64 328h24v16h-24z"/><path d="m376 336h32v16h-32z"/><path d="m424 336h32v16h-32z"/><path d="m360 304h40v16h-40z"/><path d="m416 304h40v16h-40z"/><path d="m392 272h64v16h-64z"/><path d="m104 328h16v16h-16z"/><path d="m358.62 361.183a25 25 0 0 0 -16-32 25 25 0 0 0 -16-32 24.982 24.982 0 0 0 -8.961-28.43l93.312-37.325a8 8 0 0 0 2.686-13.085l-28.8-28.8 6.9-27.606a8 8 0 0 0 -2.1-7.6l-32-32a7.993 7.993 0 0 0 -7.6-2.1l-27.606 6.9-28.8-28.8a8 8 0 0 0 -13.085 2.686l-47.383 118.477-70.84 70.84a8 8 0 0 0 0 11.314l42.343 42.346-138.343 138.343 11.314 11.314 106.343-106.343 80.29 80.29-14.883 14.706 11.245 11.38 79.175-78.226a24.966 24.966 0 0 0 22.8-6.777l6.059-6.059a24.97 24.97 0 0 0 -10.066-41.445zm-17.247-1.87-8 8-6.059 6.059a8.97 8.97 0 1 1 -12.687-12.685l8-8 6.059-6.059a8.97 8.97 0 1 1 12.687 12.685zm-32-64-8 8-11.03 11.03a8.97 8.97 0 1 1 -12.686-12.686l19.029-19.029a8.97 8.97 0 1 1 12.687 12.685zm-14.279 62.646q1.116.483 2.286.858a24.992 24.992 0 0 0 13.462 31.028l-2.155 2.155h-25.374l-16.339-16.34a25.265 25.265 0 0 0 4.056.34h.328a24.682 24.682 0 0 0 23.736-18.041zm30.279-30.646-8 8-6.059 6.059a8.97 8.97 0 1 1 -12.687-12.685l3.03-3.03 11.029-11.029a8.97 8.97 0 1 1 12.687 12.685zm24.173-190.454 25.594 25.6-3.474 13.9-36.018-36.018zm-58.624-18.624 102.842 102.843-103.837 41.535-40.54-40.54zm-50.922 117.078 36.687 36.687-60.687 60.687-36.687-36.687zm-44.686 140.687 51.03-51.029a8.01 8.01 0 0 1 11.314 0l19.715 19.715a8.91 8.91 0 0 1 2.627 6.34v.331a8.654 8.654 0 0 1 -8.642 8.643h-.328a8.9 8.9 0 0 1 -6.33-2.621l-11.044-11.037a8 8 0 0 0 -13.244 8.188l.844 2.534a28.453 28.453 0 0 1 -6.912 29.279l11.314 11.314a44.853 44.853 0 0 0 8.617-12.068l20.068 20.068a8 8 0 0 0 5.657 2.343h32a8 8 0 0 0 5.657-2.343l4.5-4.5a25.041 25.041 0 0 0 3.563 5.755l-50.045 49.444zm162.059 15.313-6.059 6.059a8.97 8.97 0 1 1 -12.687-12.685l6.059-6.059a8.97 8.97 0 1 1 12.687 12.685z"/></svg>