<?xml version="1.0" encoding="iso-8859-1"?>
<!-- Generator: Adobe Illustrator 19.0.0, SVG Export Plug-In . SVG Version: 6.00 Build 0)  -->
<svg version="1.1" id="Capa_1" xmlns="http://www.w3.org/2000/svg" xmlns:xlink="http://www.w3.org/1999/xlink" x="0px" y="0px"
	 viewBox="0 0 512 512" style="enable-background:new 0 0 512 512;" xml:space="preserve">
<path style="fill:#8C70C2;" d="M504,511H8c-4.418,0-8-3.582-8-8V191L251.2,2.6c2.844-2.133,6.756-2.133,9.6,0L512,191v312
	C512,507.418,508.418,511,504,511z"/>
<path style="fill:#FDC572;" d="M388.8,136.6l-128-96c-2.845-2.134-6.756-2.133-9.6,0l-128,96c-2.015,1.511-3.2,3.882-3.2,6.4v312
	c0,4.418,3.582,8,8,8h256c4.418,0,8-3.582,8-8V143C392,140.482,390.814,138.111,388.8,136.6z M256,103c8.822,0,16,7.178,16,16
	s-7.178,16-16,16s-16-7.178-16-16S247.178,103,256,103z"/>
<g>
	<path style="fill:#FCB74F;" d="M120,407.698V455c0,4.418,3.582,8,8,8h256c4.418,0,8-3.582,8-8V237.698L120,407.698z"/>
	<path style="fill:#FCB74F;" d="M120,237.698V455c0,4.418,3.582,8,8,8h256c4.418,0,8-3.582,8-8v-47.302L120,237.698z"/>
</g>
<path style="fill:#BAA9DA;" d="M0,191v312c0,4.418,3.582,8,8,8h496c1.931,0,3.701-0.684,5.083-1.823L0,191z"/>
<path style="fill:#A38DCE;" d="M0,503c0,4.418,3.582,8,8,8h496c1.931,0,3.701-0.684,5.083-1.823L233.359,336.849L0,482.698V503z"/>
<path style="fill:#D1C6E7;" d="M2.917,509.177C4.299,510.316,6.069,511,8,511h496c4.418,0,8-3.582,8-8V191L2.917,509.177z"/>
<g>
	<path style="fill:#FFFFFF;" d="M208,270.5c-6.558,0-9.924-8.183-5.303-12.803l96-96c2.93-2.929,7.678-2.929,10.607,0
		s2.929,7.678,0,10.606l-96,96C211.839,269.768,209.919,270.5,208,270.5z"/>
	<path style="fill:#FFFFFF;" d="M296,270.5c-12.958,0-23.5-10.542-23.5-23.5s10.542-23.5,23.5-23.5s23.5,10.542,23.5,23.5
		S308.958,270.5,296,270.5z M296,238.5c-4.687,0-8.5,3.813-8.5,8.5s3.813,8.5,8.5,8.5s8.5-3.813,8.5-8.5S300.687,238.5,296,238.5z"
		/>
	<path style="fill:#FFFFFF;" d="M216,206.5c-12.958,0-23.5-10.542-23.5-23.5s10.542-23.5,23.5-23.5s23.5,10.542,23.5,23.5
		S228.958,206.5,216,206.5z M216,174.5c-4.687,0-8.5,3.813-8.5,8.5s3.813,8.5,8.5,8.5s8.5-3.813,8.5-8.5S220.687,174.5,216,174.5z"
		/>
</g>
<g>
</g>
<g>
</g>
<g>
</g>
<g>
</g>
<g>
</g>
<g>
</g>
<g>
</g>
<g>
</g>
<g>
</g>
<g>
</g>
<g>
</g>
<g>
</g>
<g>
</g>
<g>
</g>
<g>
</g>
</svg>
